<?xml version="1.0" encoding="utf-8"?>
<!-- Generator: Adobe Illustrator 21.0.0, SVG Export Plug-In . SVG Version: 6.00 Build 0)  -->
<svg version="1.1" id="Capa_1" xmlns="http://www.w3.org/2000/svg" xmlns:xlink="http://www.w3.org/1999/xlink" x="0px" y="0px"
	 viewBox="0 0 50 70" style="enable-background:new 0 0 50 70;" xml:space="preserve">
<style type="text/css">
	.st0{fill:url(#SVGID_1_);}
	.st1{fill:#3C3C3B;}
	.st2{fill:#004BE1;}
	.st3{fill:#63FF37;}
</style>
<linearGradient id="SVGID_1_" gradientUnits="userSpaceOnUse" x1="17.25" y1="37" x2="32.75" y2="37" gradientTransform="matrix(1 0 0 -1 0 72)">
	<stop  offset="0" style="stop-color:#005DCC"/>
	<stop  offset="0.178" style="stop-color:#0083BC"/>
	<stop  offset="0.505" style="stop-color:#00C4A0"/>
	<stop  offset="0.6105" style="stop-color:#00CF82"/>
	<stop  offset="0.8385" style="stop-color:#00EB37"/>
	<stop  offset="0.9947" style="stop-color:#00FF00"/>
</linearGradient>
<rect x="17.3" y="30.1" class="st0" width="15.5" height="9.8"/>
<g>
	<polygon class="st1" points="24.6,33.6 24.6,35.5 26.2,34.5 	"/>
	<path class="st1" d="M27.9,32.1c1,0.6,1.6,1.6,1.6,2.7l1.6-0.9v-1.8v-1.9l-1.6,1L27.9,32.1z"/>
	<polygon class="st1" points="21.7,35.6 23.2,36.6 23.2,34.7 	"/>
	<polygon class="st1" points="21.7,37.5 21.7,39.3 23.2,40.2 23.2,38.4 24.8,37.5 23.2,36.6 	"/>
	<polygon class="st1" points="24.8,37.5 26.4,38.4 26.4,36.6 	"/>
	<polygon class="st1" points="26.4,38.4 24.8,39.3 24.8,41.1 26.4,42 27.9,41.1 26.4,40.2 	"/>
	<polygon class="st1" points="32.7,35.2 31.5,35.9 31.5,37.3 32.7,38 33.9,37.3 33.9,35.9 	"/>
	<polygon class="st1" points="32.7,33 31.2,33.9 31.2,35.7 32.7,34.8 	"/>
	<polygon class="st1" points="29.5,42 29.5,40.2 27.9,41.1 	"/>
	<polygon class="st1" points="22.3,40.3 20.9,41.1 22.3,41.9 22.3,41.5 23.2,42 23.2,40.2 22.3,40.7 	"/>
</g>
<g>
	<polygon class="st2" points="24.4,8 25.6,8 25,7 	"/>
</g>
<g>
	<polygon class="st3" points="24.2,67.7 24.2,69.5 25.8,68.6 	"/>
</g>
</svg>
