<?xml version="1.0" encoding="utf-8"?>
<!-- Generator: Adobe Illustrator 21.0.0, SVG Export Plug-In . SVG Version: 6.00 Build 0)  -->
<svg version="1.1" id="Capa_1" xmlns="http://www.w3.org/2000/svg" xmlns:xlink="http://www.w3.org/1999/xlink" x="0px" y="0px"
	 viewBox="0 0 60 70" style="enable-background:new 0 0 60 70;" xml:space="preserve">
<style type="text/css">
	.st0{fill:#323231;}
</style>
<g>
	<path class="st0" d="M30.7,9.1V4h-1.3v5.1c0.2,0,0.4,0,0.7,0S30.4,9.1,30.7,9.1z"/>
	<path class="st0" d="M29.3,45.7v5.1h1.3v-5.1c-0.2,0-0.4,0-0.7,0S29.6,45.7,29.3,45.7z"/>
	<path class="st0" d="M11.7,27.4c0-0.2,0-0.4,0-0.7H6.6v1.3h5.1C11.7,27.8,11.7,27.6,11.7,27.4z"/>
	<path class="st0" d="M48.3,26.7c0,0.2,0,0.4,0,0.7c0,0.2,0,0.4,0,0.7h5.1v-1.3H48.3z"/>
	<path class="st0" d="M13,43.5l0.9,0.9l3.6-3.6c-0.3-0.3-0.6-0.6-0.9-0.9L13,43.5z"/>
	<path class="st0" d="M47,11.3l-0.9-0.9L42.5,14c0.3,0.3,0.6,0.6,0.9,0.9L47,11.3z"/>
	<path class="st0" d="M42.5,40.8l3.6,3.6l0.9-0.9l-3.6-3.6C43.1,40.2,42.8,40.5,42.5,40.8z"/>
	<path class="st0" d="M17.5,14l-3.6-3.6L13,11.3l3.6,3.6C16.9,14.6,17.2,14.3,17.5,14z"/>
	<path class="st0" d="M36.4,44.6l1.9,4.7l1.2-0.5l-1.9-4.7C37.2,44.2,36.8,44.4,36.4,44.6z"/>
	<path class="st0" d="M23.6,10.2l-1.9-4.7L20.4,6l1.9,4.7C22.8,10.5,23.2,10.4,23.6,10.2z"/>
	<path class="st0" d="M12.8,33.8l-4.7,1.9l0.5,1.2l4.7-1.9C13.2,34.6,13,34.2,12.8,33.8z"/>
	<path class="st0" d="M47.2,21l4.7-1.9l-0.5-1.2l-4.7,1.9C46.8,20.2,47,20.6,47.2,21z"/>
	<path class="st0" d="M20.4,48.7l1.2,0.5l1.9-4.7c-0.4-0.2-0.8-0.3-1.2-0.5L20.4,48.7z"/>
	<path class="st0" d="M39.6,6l-1.2-0.5l-1.9,4.7c0.4,0.2,0.8,0.3,1.2,0.5L39.6,6z"/>
	<path class="st0" d="M46.7,35l4.7,1.9l0.5-1.2l-4.7-1.9C47,34.2,46.8,34.6,46.7,35z"/>
	<path class="st0" d="M13.3,19.8l-4.7-1.9l-0.5,1.2l4.7,1.9C13,20.6,13.2,20.2,13.3,19.8z"/>
	<path class="st0" d="M45.2,33c0.6-1.6,0.9-3.2,1-4.9c0-0.2,0-0.4,0-0.7c0-0.2,0-0.4,0-0.7c-0.1-1.7-0.4-3.4-1-4.9
		c-0.2-0.4-0.3-0.8-0.5-1.2c-0.7-1.5-1.7-3-2.8-4.2c-0.3-0.3-0.6-0.6-0.9-0.9c-1.2-1.1-2.6-2.1-4.2-2.8c-0.4-0.2-0.8-0.4-1.2-0.5
		c-1.6-0.6-3.2-0.9-5-1c-0.2,0-0.4,0-0.7,0s-0.4,0-0.7,0c-1.7,0.1-3.4,0.4-5,1c-0.4,0.2-0.8,0.3-1.2,0.5c-1.5,0.7-2.9,1.7-4.2,2.8
		c-0.3,0.3-0.6,0.6-0.9,0.9c-1.1,1.2-2.1,2.6-2.8,4.2c-0.2,0.4-0.3,0.8-0.5,1.2c-0.6,1.6-0.9,3.2-1,4.9c0,0.2,0,0.4,0,0.7
		c0,0.2,0,0.4,0,0.7c0.1,1.7,0.4,3.4,1,4.9c0.2,0.4,0.3,0.8,0.5,1.2c0.7,1.5,1.7,3,2.8,4.2c0.3,0.3,0.6,0.6,0.9,0.9
		c1.2,1.1,2.6,2.1,4.2,2.8c0.4,0.2,0.8,0.4,1.2,0.5c1.6,0.6,3.2,0.9,5,1c0.2,0,0.4,0,0.7,0s0.4,0,0.7,0c1.7-0.1,3.4-0.4,5-1
		c0.4-0.2,0.8-0.3,1.2-0.5c1.5-0.7,2.9-1.7,4.2-2.8c0.3-0.3,0.6-0.6,0.9-0.9c1.1-1.2,2.1-2.6,2.8-4.2C44.9,33.8,45.1,33.4,45.2,33z
		 M43.5,33.7c-0.6,1.4-1.5,2.7-2.5,3.8c-0.3,0.3-0.6,0.6-0.9,0.9c-1.1,1-2.4,1.9-3.8,2.5c-0.4,0.2-0.8,0.4-1.2,0.5
		c-1.4,0.5-2.9,0.8-4.5,0.9c-0.2,0-0.4,0-0.7,0s-0.4,0-0.7,0c-1.6-0.1-3.1-0.4-4.5-0.9c-0.4-0.2-0.8-0.3-1.2-0.5
		c-1.4-0.7-2.6-1.5-3.8-2.5c-0.3-0.3-0.6-0.6-0.9-0.9c-1-1.1-1.9-2.4-2.5-3.8c-0.2-0.4-0.4-0.8-0.5-1.2c-0.5-1.4-0.8-2.9-0.9-4.4
		c0-0.2,0-0.4,0-0.7c0-0.2,0-0.4,0-0.7c0.1-1.5,0.4-3,0.9-4.4c0.2-0.4,0.3-0.8,0.5-1.2c0.6-1.4,1.5-2.7,2.5-3.8
		c0.3-0.3,0.6-0.6,0.9-0.9c1.1-1,2.4-1.9,3.8-2.5c0.4-0.2,0.8-0.4,1.2-0.5c1.4-0.5,2.9-0.8,4.5-0.9c0.2,0,0.4,0,0.7,0s0.4,0,0.7,0
		c1.6,0.1,3.1,0.4,4.5,0.9c0.4,0.2,0.8,0.3,1.2,0.5c1.4,0.7,2.6,1.5,3.8,2.5c0.3,0.3,0.6,0.6,0.9,0.9c1,1.1,1.9,2.4,2.5,3.8
		c0.2,0.4,0.4,0.8,0.5,1.2c0.5,1.4,0.8,2.9,0.9,4.4c0,0.2,0,0.4,0,0.7c0,0.2,0,0.4,0,0.7c-0.1,1.6-0.4,3-0.9,4.4
		C43.9,32.9,43.7,33.3,43.5,33.7z"/>
	<path class="st0" d="M42,23.1c-0.1-0.4-0.3-0.8-0.5-1.2c-0.5-1.1-1.2-2.2-2-3.1c-0.3-0.3-0.6-0.6-0.9-0.9c-0.9-0.8-1.9-1.5-3-2.1
		c-0.4-0.2-0.8-0.4-1.2-0.5c-1.1-0.4-2.4-0.7-3.6-0.7c-0.2,0-0.4,0-0.7,0s-0.4,0-0.7,0c-1.3,0.1-2.5,0.3-3.6,0.7
		c-0.4,0.2-0.8,0.3-1.2,0.5c-1.1,0.5-2.1,1.2-3,2.1c-0.3,0.3-0.6,0.6-0.9,0.9c-0.8,0.9-1.5,1.9-2,3.1c-0.2,0.4-0.4,0.8-0.5,1.2
		c-0.4,1.1-0.6,2.3-0.7,3.6c0,0.2,0,0.4,0,0.7c0,0.2,0,0.4,0,0.7c0.1,1.3,0.3,2.5,0.7,3.6c0.1,0.4,0.3,0.8,0.5,1.2
		c0.5,1.1,1.2,2.2,2,3.1c0.3,0.3,0.6,0.6,0.9,0.9c0.9,0.8,1.9,1.5,3,2.1c0.4,0.2,0.8,0.4,1.2,0.5c1.1,0.4,2.4,0.7,3.6,0.7
		c0.2,0,0.4,0,0.7,0s0.4,0,0.7,0c1.3-0.1,2.5-0.3,3.6-0.7c0.4-0.2,0.8-0.3,1.2-0.5c1.1-0.5,2.1-1.2,3-2.1c0.3-0.3,0.6-0.6,0.9-0.9
		c0.8-0.9,1.5-1.9,2-3.1c0.2-0.4,0.4-0.8,0.5-1.2c0.4-1.1,0.6-2.3,0.7-3.6c0-0.2,0-0.4,0-0.7c0-0.2,0-0.4,0-0.7
		C42.6,25.5,42.4,24.3,42,23.1z M41.4,27.4c0,0.2,0,0.4,0,0.7c-0.1,1.1-0.3,2.1-0.6,3.1c-0.1,0.4-0.3,0.8-0.5,1.2
		c-0.5,1-1,1.8-1.7,2.6c-0.3,0.3-0.6,0.6-0.9,0.9c-0.8,0.7-1.7,1.3-2.6,1.8c-0.4,0.2-0.8,0.4-1.2,0.5c-1,0.4-2,0.6-3.1,0.6
		c-0.2,0-0.4,0-0.7,0s-0.4,0-0.7,0c-1.1-0.1-2.1-0.3-3.1-0.6c-0.4-0.1-0.8-0.3-1.2-0.5c-1-0.5-1.8-1.1-2.6-1.8
		c-0.3-0.3-0.6-0.6-0.9-0.9c-0.7-0.8-1.3-1.7-1.7-2.6c-0.2-0.4-0.4-0.8-0.5-1.2c-0.3-1-0.5-2-0.6-3.1c0-0.2,0-0.4,0-0.7
		c0-0.2,0-0.4,0-0.7c0.1-1.1,0.3-2.1,0.6-3.1c0.1-0.4,0.3-0.8,0.5-1.2c0.5-1,1-1.8,1.7-2.6c0.3-0.3,0.6-0.6,0.9-0.9
		c0.8-0.7,1.7-1.3,2.6-1.8c0.4-0.2,0.8-0.4,1.2-0.5c1-0.4,2-0.6,3.1-0.6c0.2,0,0.4,0,0.7,0s0.4,0,0.7,0c1.1,0.1,2.1,0.3,3.1,0.6
		c0.4,0.1,0.8,0.3,1.2,0.5c1,0.5,1.8,1.1,2.6,1.8c0.3,0.3,0.6,0.6,0.9,0.9c0.7,0.8,1.3,1.7,1.7,2.6c0.2,0.4,0.4,0.8,0.5,1.2
		c0.3,1,0.5,2,0.6,3.1C41.4,27,41.4,27.2,41.4,27.4z"/>
	<path class="st0" d="M39.2,24.3c-0.1-0.4-0.3-0.8-0.5-1.2c-0.4-0.7-0.8-1.4-1.4-2.1c-0.3-0.3-0.6-0.6-0.9-0.9
		c-0.6-0.6-1.3-1-2.1-1.4c-0.4-0.2-0.8-0.4-1.2-0.5c-0.8-0.3-1.6-0.4-2.5-0.5c-0.2,0-0.4,0-0.7,0s-0.4,0-0.7,0
		c-0.9,0.1-1.7,0.2-2.5,0.5c-0.4,0.1-0.8,0.3-1.2,0.5c-0.7,0.4-1.4,0.9-2.1,1.4c-0.3,0.3-0.6,0.6-0.9,0.9c-0.5,0.6-1,1.3-1.4,2.1
		c-0.2,0.4-0.4,0.8-0.5,1.2c-0.3,0.8-0.4,1.6-0.5,2.4c0,0.2,0,0.4,0,0.7c0,0.2,0,0.4,0,0.7c0.1,0.8,0.2,1.7,0.5,2.4
		c0.1,0.4,0.3,0.8,0.5,1.2c0.4,0.7,0.8,1.4,1.4,2.1c0.3,0.3,0.6,0.6,0.9,0.9c0.6,0.6,1.3,1,2.1,1.4c0.4,0.2,0.8,0.4,1.2,0.5
		c0.8,0.3,1.6,0.4,2.5,0.5c0.2,0,0.4,0,0.7,0s0.4,0,0.7,0c0.9-0.1,1.7-0.2,2.5-0.5c0.4-0.1,0.8-0.3,1.2-0.5c0.7-0.4,1.4-0.9,2.1-1.4
		c0.3-0.3,0.6-0.6,0.9-0.9c0.5-0.6,1-1.3,1.4-2.1c0.2-0.4,0.4-0.8,0.5-1.2c0.3-0.8,0.4-1.6,0.5-2.4c0-0.2,0-0.4,0-0.7
		c0-0.2,0-0.4,0-0.7C39.6,25.9,39.4,25.1,39.2,24.3z M24.6,33.8c-0.3-0.3-0.6-0.6-0.9-0.9c-0.4-0.5-0.8-1.1-1.1-1.6
		c-0.2-0.4-0.4-0.8-0.5-1.2c-0.2-0.6-0.3-1.3-0.4-1.9c0-0.2,0-0.4,0-0.7c0-0.2,0-0.4,0-0.7c0.1-0.7,0.2-1.3,0.4-1.9
		c0.1-0.4,0.3-0.8,0.5-1.2c0.3-0.6,0.7-1.1,1.1-1.6c0.3-0.3,0.6-0.7,0.9-0.9c0.5-0.4,1-0.8,1.6-1.1c0.4-0.2,0.8-0.4,1.2-0.5
		c0.6-0.2,1.3-0.3,1.9-0.4c0.2,0,0.4,0,0.7,0s0.4,0,0.7,0c0.7,0.1,1.3,0.2,1.9,0.4c0.4,0.1,0.8,0.3,1.2,0.5c0.6,0.3,1.1,0.7,1.6,1.1
		c0.3,0.3,0.6,0.6,0.9,0.9c0.4,0.5,0.8,1.1,1.1,1.6c0.2,0.4,0.4,0.8,0.5,1.2c0.2,0.6,0.3,1.3,0.4,1.9c0,0.2,0,0.4,0,0.7
		c0,0.2,0,0.4,0,0.7c-0.1,0.7-0.2,1.3-0.4,1.9c-0.1,0.4-0.3,0.8-0.5,1.2c-0.3,0.6-0.7,1.1-1.1,1.6c-0.3,0.3-0.6,0.7-0.9,0.9
		c-0.5,0.4-1,0.8-1.6,1.1c-0.4,0.2-0.8,0.4-1.2,0.5c-0.6,0.2-1.3,0.3-1.9,0.4c-0.2,0-0.4,0-0.7,0s-0.4,0-0.7,0
		c-0.7-0.1-1.3-0.2-1.9-0.4c-0.4-0.1-0.8-0.3-1.2-0.5C25.6,34.6,25,34.2,24.6,33.8z"/>
	<rect x="24.1" y="61.2" class="st0" width="11.9" height="2.8"/>
</g>
</svg>
