<?xml version="1.0" encoding="utf-8"?>
<!-- Generator: Adobe Illustrator 21.0.0, SVG Export Plug-In . SVG Version: 6.00 Build 0)  -->
<svg version="1.1" id="Capa_1" xmlns="http://www.w3.org/2000/svg" xmlns:xlink="http://www.w3.org/1999/xlink" x="0px" y="0px"
	 viewBox="0 0 60 70" style="enable-background:new 0 0 60 70;" xml:space="preserve">
<style type="text/css">
	.st0{fill:#323231;}
</style>
<g>
	<path class="st0" d="M48.7,28.7c0-2.5-0.5-4.9-1.4-7.2c-0.9-2.3-2.3-4.3-4.1-6.1c-1.7-1.7-3.8-3.1-6.1-4C34.9,10.5,32.5,10,30,10
		c-4.8,0-9.2,1.8-12.7,5l0,0l-0.5,0.5l-0.5,0.5l0,0c-1.5,1.6-2.8,3.5-3.6,5.6c-0.9,2.3-1.4,4.7-1.4,7.2s0.5,4.9,1.4,7.2
		c0.9,2.3,2.3,4.3,4.1,6.1c1.7,1.7,3.8,3.1,6.1,4c2.3,0.9,4.7,1.4,7.1,1.4c2.5,0,4.9-0.5,7.1-1.4c2.1-0.9,3.9-2.1,5.6-3.6l0,0
		l0.5-0.5l0.5-0.5l0,0c1.5-1.6,2.8-3.5,3.6-5.6C48.2,33.6,48.7,31.2,48.7,28.7z M40.3,18.4c1.4,1.4,2.4,3,3.2,4.7
		c0.7,1.8,1.1,3.7,1.1,5.6c0,0.5,0,0.9-0.1,1.4c0,0.1,0,0.3-0.1,0.4c0,0.3-0.1,0.6-0.1,0.9c0,0.2-0.1,0.3-0.1,0.5
		c-0.1,0.3-0.1,0.5-0.2,0.8c-0.1,0.2-0.1,0.4-0.2,0.5c0,0.1-0.1,0.3-0.1,0.4l-1.4-0.6c0-0.1,0.1-0.2,0.1-0.3
		c0.1-0.2,0.1-0.3,0.1-0.5c0.1-0.2,0.1-0.5,0.2-0.7c0-0.2,0.1-0.3,0.1-0.5c0-0.3,0.1-0.5,0.1-0.8c0-0.1,0-0.3,0.1-0.4
		c0-0.2,0-0.4,0-0.6h0v-0.7v-0.7h0c0-0.2,0-0.4,0-0.6c-0.1-1.3-0.4-2.5-0.9-3.7c-0.1-0.2-0.2-0.5-0.3-0.7c-0.6-1.3-1.5-2.5-2.5-3.6
		c-1.2-1.2-2.6-2.2-4.2-2.9c-3.2-1.3-6.9-1.3-10.1,0c-1.6,0.7-3,1.6-4.2,2.9c-0.3,0.3-0.6,0.6-0.8,0.9c-0.1,0.1-0.2,0.2-0.2,0.3
		c-0.2,0.2-0.3,0.4-0.5,0.7c-0.1,0.1-0.2,0.3-0.3,0.4c-0.1,0.2-0.3,0.4-0.4,0.6c-0.1,0.1-0.2,0.3-0.2,0.4c-0.1,0.1-0.1,0.2-0.2,0.3
		l-1.4-0.6c0.1-0.1,0.1-0.3,0.2-0.4c0.1-0.2,0.2-0.3,0.3-0.5c0.1-0.2,0.3-0.5,0.4-0.7c0.1-0.2,0.2-0.3,0.3-0.4
		c0.2-0.2,0.4-0.5,0.5-0.7c0.1-0.1,0.2-0.2,0.3-0.4c0.3-0.3,0.6-0.7,0.9-1c1.4-1.4,3-2.4,4.7-3.2c3.5-1.5,7.6-1.5,11.2,0
		C37.4,15.9,38.9,17,40.3,18.4z M42.7,35.8c-0.1,0.2-0.3,0.5-0.4,0.7c-0.1,0.1-0.2,0.3-0.3,0.4c0,0,0,0-0.1,0.1l-0.1-0.1l-1-1
		c0-0.1,0.1-0.2,0.1-0.2c0.1-0.2,0.3-0.4,0.4-0.6c0.1-0.1,0.2-0.3,0.2-0.4c0.1-0.1,0.1-0.2,0.2-0.3l1.4,0.6
		c-0.1,0.1-0.1,0.3-0.2,0.4C42.9,35.5,42.8,35.6,42.7,35.8z M24.4,42.2c-1.8-0.7-3.4-1.8-4.7-3.2c-1.4-1.4-2.4-3-3.2-4.7
		c-0.7-1.8-1.1-3.7-1.1-5.6c0-0.5,0-0.9,0.1-1.4c0-0.1,0-0.3,0.1-0.4c0-0.3,0.1-0.6,0.1-0.9c0-0.2,0.1-0.3,0.1-0.5
		c0.1-0.3,0.1-0.5,0.2-0.8c0.1-0.2,0.1-0.4,0.2-0.5c0-0.1,0.1-0.3,0.1-0.4l1.4,0.6c0,0.1-0.1,0.2-0.1,0.3c-0.1,0.2-0.1,0.3-0.1,0.5
		c-0.1,0.2-0.1,0.5-0.2,0.7c0,0.2-0.1,0.3-0.1,0.5c0,0.3-0.1,0.5-0.1,0.8c0,0.1,0,0.3-0.1,0.4c0,0.2,0,0.4,0,0.6h0v0.7v0.7h0
		c0.1,1.5,0.4,3,1,4.4c0.7,1.6,1.6,3,2.8,4.3c1.2,1.2,2.6,2.2,4.2,2.9c1.6,0.7,3.3,1,5,1c1.7,0,3.4-0.3,5-1c0.8-0.3,1.5-0.7,2.2-1.2
		l0.4,0.4c0.2,0.2,0.4,0.5,0.6,0.7c-0.8,0.6-1.7,1.1-2.7,1.5C32,43.7,28,43.7,24.4,42.2z M25.5,39.7c-1.4-0.6-2.7-1.5-3.8-2.6
		c-1.1-1.1-1.9-2.4-2.5-3.8c-0.1-0.3-0.3-0.7-0.4-1c0-0.1-0.1-0.2-0.1-0.3c-0.1-0.2-0.1-0.5-0.2-0.7c0-0.1-0.1-0.3-0.1-0.4
		c0-0.2-0.1-0.4-0.1-0.7c0-0.1,0-0.3,0-0.4c0-0.1,0-0.2,0-0.3h1.5c0.1,1.1,0.3,2.2,0.7,3.3c0.5,1.3,1.2,2.4,2.2,3.4
		c1,1,2.1,1.8,3.3,2.3c2.5,1.1,5.4,1.1,7.9,0c0.4-0.2,0.8-0.4,1.2-0.7l1.1,1.1c-0.6,0.4-1.1,0.7-1.8,0.9
		C31.6,40.9,28.4,40.9,25.5,39.7z M38.3,32.2c-0.1,0.3-0.2,0.5-0.4,0.8l-1.4-1.4c0.4-0.9,0.6-1.8,0.6-2.8c0-1.9-0.7-3.7-2.1-5
		c-1.8-1.8-4.5-2.5-7-1.8c-0.1,0-0.3,0.2-0.3,0.3c0,0.1,0,0.3,0.1,0.4l4.5,4.5c-0.1,0.3-0.5,0.9-1.7,2.2c-1.2,1.2-1.9,1.6-2.2,1.7
		l-4.5-4.5c-0.1-0.1-0.3-0.1-0.4-0.1c-0.1,0-0.3,0.2-0.3,0.3c-0.2,0.6-0.3,1.3-0.3,2c0,1.9,0.7,3.7,2.1,5c2.1,2.1,5.2,2.6,7.8,1.5
		l1.5,1.5c-0.3,0.1-0.5,0.3-0.8,0.4c-2.2,0.9-4.7,0.9-6.9,0c-1.1-0.5-2.1-1.1-2.9-2c-0.8-0.8-1.5-1.8-1.9-2.9
		c-0.4-1.1-0.7-2.3-0.7-3.4s0.2-2.3,0.7-3.4c0.4-1.1,1.1-2.1,1.9-2.9c0.8-0.9,1.8-1.5,2.9-2c2.2-0.9,4.7-0.9,6.9,0
		c1.1,0.5,2.1,1.1,2.9,2c0.8,0.8,1.5,1.8,1.9,2.9c0.4,1.1,0.7,2.3,0.7,3.4C38.9,29.9,38.7,31.1,38.3,32.2z M38.9,33.9
		c0.2-0.4,0.4-0.8,0.6-1.3c0.4-1.1,0.7-2.2,0.7-3.3h1.5c0,0.1,0,0.2,0,0.3c0,0.1,0,0.3,0,0.4c0,0.2-0.1,0.4-0.1,0.7
		c0,0.1,0,0.3-0.1,0.4c-0.1,0.2-0.1,0.5-0.2,0.7c0,0.1-0.1,0.2-0.1,0.3c-0.1,0.3-0.2,0.7-0.4,1l0,0c-0.3,0.6-0.6,1.2-0.9,1.8
		L38.9,33.9z M40.9,24.2c0.1,0.3,0.3,0.7,0.4,1c0,0.1,0.1,0.2,0.1,0.3c0.1,0.2,0.1,0.5,0.2,0.7c0,0.1,0,0.3,0.1,0.4
		c0,0.2,0.1,0.4,0.1,0.7c0,0.1,0,0.3,0,0.4c0,0.1,0,0.2,0,0.3h-1.5c-0.1-1.1-0.3-2.2-0.7-3.3c-0.5-1.3-1.2-2.4-2.2-3.4
		c-1-1-2.1-1.8-3.3-2.3c-2.5-1.1-5.4-1.1-7.9,0c-1.2,0.5-2.4,1.3-3.3,2.3c-0.9,1-1.7,2.1-2.2,3.4c-0.4,1.1-0.7,2.2-0.7,3.3h-1.5
		c0-0.1,0-0.2,0-0.3c0-0.1,0-0.3,0-0.4c0-0.2,0.1-0.4,0.1-0.7c0-0.1,0-0.3,0.1-0.4c0.1-0.2,0.1-0.5,0.2-0.7c0-0.1,0.1-0.2,0.1-0.3
		c0.1-0.3,0.2-0.7,0.4-1l0,0c0.6-1.4,1.4-2.7,2.5-3.8c1.1-1.1,2.4-2,3.8-2.6c2.9-1.2,6.2-1.2,9,0c1.4,0.6,2.7,1.5,3.8,2.6
		c0.3,0.3,0.5,0.6,0.8,0.9C39.8,22.1,40.4,23.1,40.9,24.2z M36.6,44.8c-4.2,1.7-9.1,1.7-13.3,0c-2.1-0.9-4-2.1-5.6-3.8
		c-1.6-1.6-2.9-3.5-3.8-5.6c-0.9-2.1-1.3-4.4-1.3-6.7c0-2.3,0.4-4.6,1.3-6.7c0.8-1.9,1.9-3.7,3.3-5.2l0.1,0.1l0.9,0.9
		c-0.1,0.1-0.2,0.3-0.3,0.4c-0.1,0.2-0.3,0.3-0.4,0.5c-0.2,0.2-0.4,0.5-0.5,0.7c-0.1,0.2-0.2,0.3-0.3,0.5c-0.2,0.3-0.3,0.6-0.5,0.9
		c-0.1,0.1-0.2,0.3-0.2,0.4c-0.1,0.2-0.2,0.5-0.4,0.7l0,0l-0.3,0.6l-0.3,0.6l0,0c-0.6,1.8-1,3.6-1,5.5c0,2.1,0.4,4.2,1.2,6.1
		c0.8,1.9,2,3.7,3.4,5.2c1.5,1.5,3.2,2.7,5.2,3.5c1.9,0.8,4,1.2,6.1,1.2s4.2-0.4,6.1-1.2c0.5-0.2,0.9-0.4,1.3-0.6
		c0.1-0.1,0.3-0.2,0.4-0.2c0.3-0.2,0.6-0.3,0.9-0.5c0.2-0.1,0.3-0.2,0.5-0.3c0,0,0,0,0,0c0.5,0.5,0.8,0.8,1.1,1
		C39.2,43.5,38,44.3,36.6,44.8z M43.9,39.1l-1-1.1c0,0,0-0.1,0.1-0.1c0.1-0.2,0.2-0.3,0.3-0.5c0.2-0.3,0.3-0.6,0.5-0.9
		c0.1-0.1,0.2-0.3,0.2-0.4c0.1-0.2,0.2-0.5,0.4-0.7l0,0l0.3-0.6l0.3-0.6l0,0c0.6-1.8,1-3.6,1-5.5c0-2.1-0.4-4.2-1.2-6.1
		c-0.8-1.9-2-3.7-3.4-5.2C39.8,16,38,14.8,36.1,14c-3.9-1.6-8.3-1.6-12.2,0c-0.5,0.2-0.9,0.4-1.3,0.6c-0.1,0.1-0.3,0.2-0.4,0.2
		c-0.3,0.2-0.6,0.3-0.8,0.5c-0.2,0.1-0.3,0.2-0.5,0.3c-0.2,0.2-0.5,0.3-0.7,0.5c-0.2,0.1-0.3,0.3-0.5,0.4c-0.1,0.1-0.3,0.2-0.4,0.3
		L19,16.8l-0.8-0.8c3.2-3,7.4-4.6,11.8-4.6c2.3,0,4.5,0.4,6.6,1.3c2.1,0.9,4,2.1,5.6,3.8c1.6,1.6,2.9,3.5,3.8,5.6
		c0.9,2.1,1.3,4.4,1.3,6.7s-0.4,4.6-1.3,6.7C45.5,36.7,44.8,38,43.9,39.1z"/>
	<rect x="24.1" y="61.2" class="st0" width="11.9" height="2.8"/>
</g>
</svg>
