<?xml version="1.0" encoding="utf-8"?>
<!-- Generator: Adobe Illustrator 21.0.0, SVG Export Plug-In . SVG Version: 6.00 Build 0)  -->
<svg version="1.1" id="Capa_1" xmlns="http://www.w3.org/2000/svg" xmlns:xlink="http://www.w3.org/1999/xlink" x="0px" y="0px"
	 viewBox="0 0 60 70" style="enable-background:new 0 0 60 70;" xml:space="preserve">
<style type="text/css">
	.st0{fill:#323231;}
</style>
<g>
	<rect x="24.1" y="61.2" class="st0" width="11.9" height="2.8"/>
</g>
<g>
	<path class="st0" d="M47.5,22.1L47.5,22.1l-0.2-0.6L47,20.9l0,0c-0.8-1.8-2-3.5-3.4-5l0,0l-0.5-0.5L42.7,15l0,0
		c-1.5-1.4-3.2-2.5-5-3.3l0,0l-0.6-0.2l-0.6-0.2l0,0c-1.9-0.7-3.9-1.1-5.9-1.2v0H30h-0.6v0c-4.5,0.2-8.8,1.9-12.1,5l0,0l-0.5,0.5
		l-0.5,0.5l0,0c-1.4,1.5-2.5,3.2-3.4,5l0,0l-0.2,0.6l-0.3,0.6l0,0C11.8,24,11.4,26,11.3,28h0v0.7v0.7h0c0.1,2,0.5,4,1.2,5.9l0,0
		l0.3,0.6l0.2,0.6l0,0c0.9,2,2.2,3.9,3.8,5.5c1.7,1.7,3.8,3.1,6.1,4c2.3,0.9,4.7,1.4,7.1,1.4s4.9-0.5,7.1-1.4c2.3-0.9,4.3-2.3,6.1-4
		c1.8-1.7,3.1-3.8,4.1-6.1c0.9-2.3,1.4-4.7,1.4-7.2C48.7,26.4,48.3,24.2,47.5,22.1z M45.8,21.4l-0.3,0.1L44.4,22
		c-0.1-0.2-0.2-0.4-0.3-0.5c-0.1-0.1-0.1-0.3-0.2-0.4c-0.5-0.8-1-1.6-1.6-2.4c-0.1-0.1-0.2-0.2-0.3-0.3c-0.1-0.2-0.3-0.3-0.4-0.5
		l1.1-1.1C44,18.2,45,19.7,45.8,21.4z M42.8,35.7c-0.2,0.4-0.4,0.8-0.7,1.1c0,0,0,0,0,0c-0.2,0.4-0.5,0.7-0.8,1
		c-0.1,0.1-0.2,0.2-0.3,0.3c-0.1,0.1-0.2,0.3-0.4,0.4l-1-1c0.9-1,1.6-2,2.1-3.2l1.4,0.6c-0.1,0.2-0.1,0.3-0.2,0.5
		C42.9,35.5,42.9,35.6,42.8,35.7z M39.1,40.1c-0.7,0.5-1.4,1-2.1,1.4c-0.1,0.1-0.2,0.1-0.4,0.2c-0.2,0.1-0.3,0.2-0.5,0.2l0-0.1
		l-0.5-1.2c1.2-0.6,2.2-1.3,3.2-2.2l1,1c-0.1,0.1-0.3,0.2-0.4,0.4C39.3,39.9,39.2,40,39.1,40.1z M23,41.5c-0.4-0.2-0.8-0.4-1.1-0.7
		c0,0,0,0,0,0c-0.4-0.2-0.7-0.5-1-0.8c-0.1-0.1-0.2-0.2-0.3-0.3c-0.1-0.1-0.3-0.2-0.4-0.4l0.5-0.5l0.5-0.5c1,0.9,2,1.6,3.2,2.2
		l-0.5,1.2l0,0.1c-0.2-0.1-0.3-0.1-0.5-0.2C23.2,41.7,23.1,41.6,23,41.5z M18.9,38.2c-0.1-0.1-0.2-0.2-0.3-0.3
		c-0.3-0.3-0.5-0.7-0.8-1c0,0,0,0,0,0c-0.2-0.4-0.5-0.7-0.7-1.1c-0.1-0.1-0.1-0.2-0.2-0.4c-0.1-0.2-0.1-0.3-0.2-0.5l1.4-0.6
		c0.5,1.2,1.3,2.2,2.1,3.2l-1,1C19.1,38.4,19,38.3,18.9,38.2z M19.7,18.4c0.7-0.7,1.4-1.2,2.1-1.8c0,0,0.1,0,0.1-0.1
		c0.3-0.2,0.7-0.4,1-0.6c0.1,0,0.1-0.1,0.2-0.1c0.4-0.2,0.8-0.4,1.1-0.5c0.1,0,0.1-0.1,0.2-0.1c1.8-0.7,3.7-1.1,5.6-1.1
		s3.8,0.4,5.6,1.1c1.8,0.7,3.4,1.8,4.7,3.2c0.3,0.3,0.6,0.7,0.9,1c0.1,0.1,0.2,0.2,0.3,0.4c0.2,0.2,0.4,0.5,0.5,0.7
		c0.1,0.1,0.2,0.3,0.3,0.4c0.1,0.2,0.3,0.5,0.4,0.7c0.1,0.2,0.2,0.3,0.3,0.5c0.1,0.1,0.1,0.3,0.2,0.4l-0.8,0.3l-0.6,0.2
		c-0.6-1.4-1.5-2.6-2.6-3.7c-1.2-1.2-2.6-2.2-4.2-2.9c-3.2-1.3-6.9-1.3-10,0c-1.6,0.7-3,1.6-4.2,2.9c-1.2,1.2-2.2,2.7-2.8,4.3
		c-0.7,1.6-1,3.3-1,5c0,1.5,0.3,3,0.8,4.4l-1.4,0.6c-0.1-0.1-0.1-0.3-0.2-0.4c-0.1-0.2-0.1-0.3-0.2-0.5c-0.1-0.3-0.1-0.5-0.2-0.8
		c0-0.2-0.1-0.3-0.1-0.5c-0.1-0.3-0.1-0.6-0.1-0.9c0-0.1,0-0.3-0.1-0.4c0-0.5-0.1-0.9-0.1-1.4c0-0.5,0-1,0.1-1.4
		c0.1-1.4,0.5-2.8,1-4.2l0,0C17.3,21.3,18.3,19.7,19.7,18.4z M44,24.6c0.1,0.4,0.2,0.8,0.3,1.2c0,0,0,0,0,0c0.1,0.4,0.1,0.9,0.2,1.3
		c0,0.1,0,0.3,0,0.4c0,0.2,0,0.3,0,0.5h-1.5c-0.1-1.3-0.3-2.5-0.7-3.8l1.4-0.6c0.1,0.2,0.1,0.3,0.2,0.5C43.9,24.3,44,24.5,44,24.6z
		 M44.5,30.3c0,0.4-0.1,0.9-0.2,1.3c0,0,0,0,0,0c-0.1,0.4-0.2,0.8-0.3,1.2c0,0.1-0.1,0.3-0.1,0.4c-0.1,0.2-0.1,0.3-0.2,0.5l-1.3-0.5
		l-0.1,0c0.4-1.2,0.7-2.5,0.7-3.8h1.5c0,0.2,0,0.4,0,0.5C44.5,30,44.5,30.1,44.5,30.3z M34.1,42.7c-0.9,0.3-1.8,0.4-2.7,0.5
		c0,0-0.1,0-0.2,0c-0.2,0-0.5,0-0.7,0v-1.4c1.3-0.1,2.6-0.3,3.8-0.8l0.2,0.4l0.4,0.9c-0.2,0.1-0.4,0.1-0.5,0.2
		C34.3,42.7,34.2,42.7,34.1,42.7z M28.7,43.3c-0.1,0-0.1,0-0.2,0c-0.9-0.1-1.8-0.3-2.7-0.5c-0.1,0-0.2-0.1-0.3-0.1
		c-0.2-0.1-0.4-0.1-0.5-0.2l0.4-0.9l0.2-0.4c1.2,0.4,2.5,0.7,3.8,0.8v1.4C29.1,43.3,28.9,43.3,28.7,43.3z M28.8,40.5
		c-1.1-0.1-2.2-0.4-3.3-0.8c-1-0.4-2-1-2.8-1.7l6.1-2.6V40.5z M34.5,39.7c-1.1,0.5-2.2,0.7-3.4,0.9v-5.2l6.2,2.6
		C36.5,38.7,35.5,39.2,34.5,39.7z M39.1,36.2l-8-3.4v-0.9h-2.3v0.9l-7.9,3.4c-0.7-0.9-1.3-1.9-1.7-3c-0.6-1.4-0.9-3-0.9-4.5
		c0-1.6,0.3-3.1,0.9-4.5c0.6-1.4,1.4-2.7,2.5-3.8c1.1-1.1,2.4-2,3.8-2.6c2.9-1.2,6.2-1.2,9,0c1.4,0.6,2.7,1.5,3.8,2.6
		c1.1,1.1,1.9,2.4,2.5,3.8c0.6,1.4,0.9,3,0.9,4.5c0,1.6-0.3,3.1-0.9,4.5C40.4,34.3,39.8,35.3,39.1,36.2z M40.8,17
		c-0.1-0.1-0.3-0.3-0.5-0.4c-0.1-0.1-0.2-0.2-0.3-0.3c-0.4-0.3-0.7-0.6-1.1-0.8c0,0,0,0,0,0c-0.4-0.3-0.8-0.5-1.2-0.7
		c-0.1-0.1-0.3-0.1-0.4-0.2c-0.2-0.1-0.4-0.2-0.5-0.3l0.6-1.4c1.7,0.8,3.2,1.8,4.6,3.1L40.8,17z M36,12.4l-0.6,1.4c0,0,0,0-0.1,0
		c-0.3-0.1-0.6-0.2-1-0.3c-0.1,0-0.2-0.1-0.4-0.1c-0.2-0.1-0.5-0.1-0.7-0.2c-0.2,0-0.4-0.1-0.6-0.1c-0.2,0-0.4-0.1-0.6-0.1
		c-0.2,0-0.4,0-0.5-0.1c-0.2,0-0.5,0-0.7-0.1c-0.1,0-0.2,0-0.3,0v-1.5C32.5,11.4,34.3,11.7,36,12.4z M29.4,11.3v1.5
		c-0.1,0-0.2,0-0.3,0c-0.2,0-0.5,0-0.7,0.1c-0.2,0-0.4,0-0.5,0.1c-0.2,0-0.4,0.1-0.6,0.1c-0.2,0-0.4,0.1-0.6,0.1
		c-0.2,0.1-0.5,0.1-0.7,0.2c-0.1,0-0.2,0.1-0.4,0.1c-0.3,0.1-0.6,0.2-1,0.3c0,0,0,0-0.1,0L24,12.4C25.7,11.7,27.5,11.4,29.4,11.3z
		 M22.8,12.9l0.6,1.4c-0.2,0.1-0.4,0.2-0.5,0.3c-0.1,0.1-0.3,0.1-0.4,0.2c-0.8,0.5-1.6,1-2.4,1.6c-0.1,0.1-0.2,0.2-0.3,0.3
		c-0.2,0.1-0.3,0.3-0.5,0.4l-1.1-1.1C19.6,14.7,21.1,13.6,22.8,12.9z M14.2,21.4c0.8-1.7,1.8-3.2,3.1-4.6l1.1,1.1
		c-0.1,0.2-0.3,0.3-0.4,0.5c-0.1,0.1-0.2,0.2-0.3,0.3c-0.6,0.7-1.1,1.5-1.6,2.4c-0.1,0.1-0.1,0.3-0.2,0.4c-0.1,0.2-0.2,0.4-0.3,0.5
		l-0.9-0.4L14.2,21.4z M13.7,22.6l1.2,0.5l0.2,0.1c0,0,0,0,0,0c-0.1,0.3-0.2,0.7-0.3,1c0,0.1,0,0.2-0.1,0.2
		c-0.1,0.4-0.2,0.7-0.3,1.1c0,0,0,0,0,0c-0.1,0.4-0.1,0.7-0.2,1.1c0,0.1,0,0.2,0,0.2c0,0.4-0.1,0.7-0.1,1.1c0,0,0,0,0,0.1h-1.5
		C12.7,26.2,13,24.4,13.7,22.6z M12.6,29.4h1.5c0,0,0,0,0,0.1c0,0.4,0,0.7,0.1,1.1c0,0.1,0,0.2,0,0.2c0.1,0.7,0.2,1.5,0.4,2.2
		c0,0.1,0,0.2,0.1,0.2c0.1,0.3,0.2,0.7,0.3,1c0,0,0,0,0,0l0,0v0l-0.2,0.1l-1.2,0.5C13,33,12.7,31.2,12.6,29.4z M46.1,35.4
		c-0.9,2.1-2.2,4-3.8,5.6c-1.6,1.6-3.5,2.9-5.6,3.8c-4.2,1.7-9.1,1.7-13.3,0c-2.1-0.9-4-2.1-5.6-3.8c-1.5-1.5-2.7-3.2-3.5-5l0.5-0.2
		l0.9-0.4c0.1,0.2,0.2,0.3,0.2,0.5c0.1,0.2,0.2,0.4,0.3,0.5c0.1,0.3,0.3,0.5,0.5,0.8c0.1,0.2,0.2,0.3,0.3,0.5
		c0.2,0.3,0.4,0.5,0.6,0.8c0.1,0.1,0.2,0.3,0.3,0.4c0.2,0.2,0.4,0.4,0.6,0.6l0,0l0.5,0.5l0.5,0.5l0,0c1.2,1.1,2.6,2,4.1,2.7l0,0
		l0.6,0.2l0.6,0.2l0,0c1.6,0.6,3.2,0.9,4.8,1v0H30h0.6v0c1.7-0.1,3.3-0.4,4.8-1l0,0l0.6-0.2l0.6-0.2l0,0c1.5-0.7,2.9-1.6,4.1-2.7
		l0,0l0.5-0.5l0.5-0.5l0,0c0.2-0.2,0.4-0.4,0.6-0.7c0.9-1,1.6-2.2,2.1-3.4l0,0l0.2-0.6c0,0,0,0,0,0l0.2-0.6l0,0
		c0.6-1.6,0.9-3.2,1-4.8h0v-0.7V28h0c0-0.2,0-0.4,0-0.7c0-0.1,0-0.1,0-0.2c0-0.4-0.1-0.8-0.2-1.2c0-0.1,0-0.1,0-0.2
		c-0.1-0.4-0.2-0.8-0.3-1.2c0-0.1,0-0.1-0.1-0.2c-0.1-0.4-0.2-0.8-0.4-1.2c0,0,0,0,0,0l0.9-0.4l0.5-0.2c0.7,1.9,1.1,4,1.1,6.1
		C47.4,31,47,33.3,46.1,35.4z"/>
	<polygon class="st0" points="22.9,29.3 36.8,33 38.6,26.2 24.7,22.5 	"/>
	<path class="st0" d="M23.6,24.8c0.1-0.5-0.2-1-0.6-1.1c-0.5-0.1-1,0.2-1.1,0.6l-0.5,2c-0.1,0.5,0.2,1,0.6,1.1
		c0.5,0.1,1-0.2,1.1-0.6L23.6,24.8z"/>
</g>
</svg>
