<?xml version="1.0" encoding="utf-8"?>
<!-- Generator: Adobe Illustrator 21.0.0, SVG Export Plug-In . SVG Version: 6.00 Build 0)  -->
<svg version="1.1" id="Capa_1" xmlns="http://www.w3.org/2000/svg" xmlns:xlink="http://www.w3.org/1999/xlink" x="0px" y="0px"
	 viewBox="0 0 60 70" style="enable-background:new 0 0 60 70;" xml:space="preserve">
<style type="text/css">
	.st0{fill:#323231;}
</style>
<g>
	<rect x="24.1" y="61.2" class="st0" width="11.9" height="2.8"/>
	<path class="st0" d="M47.5,21L47.5,21l-0.2-0.6L47,19.8l0,0c-0.8-1.8-2-3.5-3.4-5l0,0l-0.5-0.5c0,0,0,0,0,0l-0.5-0.5l0,0
		c-1.6-1.5-3.5-2.7-5.6-3.6c-5.3-2.2-11.4-1.8-16.4,1c-5,2.8-8.4,7.8-9.3,13.5c-0.5,3.4-0.1,6.8,1.2,9.9c0.9,2.3,2.3,4.3,4.1,6.1
		c1.7,1.7,3.8,3.1,6.1,4c2.3,0.9,4.7,1.4,7.1,1.4c2.4,0,4.9-0.5,7.1-1.4c2.3-0.9,4.3-2.3,6.1-4c1.6-1.6,2.9-3.4,3.8-5.5l0,0l0.2-0.6
		l0.3-0.6l0,0C49.1,29.9,49.1,25.2,47.5,21z M44.6,23.2v1.5H32.2v-1.5H44.6z M25,15.4c-1.6,0.7-3,1.6-4.2,2.9
		c-1.2,1.2-2.2,2.7-2.8,4.3c-0.6,1.4-0.9,2.9-1,4.4h0v0.6v0.6h0c0.1,1.5,0.4,3,1,4.4c0.7,1.6,1.6,3,2.8,4.3c1.2,1.2,2.6,2.2,4.2,2.9
		c1.6,0.7,3.3,1,5,1c1.7,0,3.4-0.3,5-1c1.6-0.7,3-1.6,4.2-2.9c1.2-1.2,2.2-2.7,2.8-4.3c0.6-1.4,0.9-2.9,1-4.4h0h1.5
		c-0.1,1.7-0.4,3.4-1.1,4.9c-1.5,3.5-4.4,6.4-7.9,7.9c-3.5,1.5-7.6,1.5-11.2,0c-3.5-1.5-6.3-4.3-7.8-7.9c-1.5-3.6-1.5-7.6-0.1-11.1
		c0.7-1.8,1.8-3.4,3.2-4.7c1.4-1.4,3-2.4,4.7-3.2c3.3-1.4,7.2-1.5,10.6-0.2l-0.6,1.4C31.4,14.1,28,14.2,25,15.4z M34,37.1
		c1.3-0.5,2.4-1.3,3.3-2.3c0.9-1,1.7-2.1,2.2-3.4c0.4-1.1,0.7-2.2,0.7-3.3h1.5c-0.1,1.3-0.4,2.6-0.9,3.9c-0.6,1.4-1.4,2.7-2.5,3.8
		c-1.1,1.1-2.4,2-3.8,2.6c-2.9,1.2-6.2,1.2-9,0c-1.4-0.6-2.7-1.5-3.8-2.6c-1.1-1.1-1.9-2.4-2.5-3.8c-0.5-1.2-0.8-2.5-0.9-3.9h1.5
		c0.1,1.1,0.3,2.2,0.7,3.3c0.5,1.3,1.2,2.4,2.2,3.4c1,1,2.1,1.7,3.3,2.3C28.6,38.2,31.5,38.2,34,37.1z M32.2,27.3v-1.5h12.4v1.5
		H32.2z M42.3,39.9c-1.6,1.6-3.5,2.9-5.6,3.8c-4.2,1.7-9.1,1.7-13.3,0c-2.1-0.9-4-2.1-5.6-3.8c-1.6-1.6-2.9-3.5-3.8-5.6
		c-1.2-2.9-1.6-6.1-1.1-9.2c0.8-5.2,4-9.9,8.6-12.5C24,11,27,10.2,30,10.2c2.3,0,4.5,0.4,6.6,1.3c1.9,0.8,3.7,1.9,5.2,3.3l-1.1,1.1
		c-1.4-1.3-3-2.3-4.7-3c-3.9-1.6-8.3-1.6-12.2,0c-1.9,0.8-3.7,2-5.2,3.4c-1.5,1.5-2.6,3.2-3.4,5.2c-1.6,3.9-1.6,8.2,0.1,12.1
		c1.6,4,4.7,7,8.5,8.6c3.9,1.6,8.3,1.6,12.2,0c3.7-1.5,6.7-4.4,8.3-8l1.4,0.6C45,36.7,43.8,38.4,42.3,39.9z"/>
</g>
</svg>
