<?xml version="1.0" encoding="utf-8"?>
<!-- Generator: Adobe Illustrator 21.0.0, SVG Export Plug-In . SVG Version: 6.00 Build 0)  -->
<svg version="1.1" id="Capa_1" xmlns="http://www.w3.org/2000/svg" xmlns:xlink="http://www.w3.org/1999/xlink" x="0px" y="0px"
	 viewBox="0 0 60 70" style="enable-background:new 0 0 60 70;" xml:space="preserve">
<style type="text/css">
	.st0{fill:#323231;}
</style>
<g>
	<path class="st0" d="M31.3,40.4c0.9-0.1,1.7-0.3,2.5-0.5c0.1,0,0.2-0.1,0.3-0.1c0.3-0.1,0.6-0.2,0.8-0.3c0.1-0.1,0.3-0.1,0.4-0.2
		c1-0.5,1.9-1,2.7-1.7c1.9-1.6,3.3-3.6,4-6c0.4-1.2,0.6-2.5,0.6-3.8v0c0-0.3,0-0.7,0-1c0-0.6-0.1-1.3-0.3-1.9
		c-0.1-0.3-0.2-0.6-0.2-0.9c-0.7-2.4-2.2-4.5-4-6c-0.9-0.8-2-1.4-3.1-1.9c-0.4-0.2-0.8-0.3-1.2-0.4c-0.8-0.2-1.6-0.4-2.5-0.5
		c-0.2,0-0.4,0-0.6,0c-0.2,0-0.4,0-0.7,0c-0.2,0-0.4,0-0.7,0c-0.6,0-1.3,0.1-1.9,0.2c-0.5,0.1-1,0.3-1.6,0.4
		c-0.4,0.1-0.8,0.3-1.2,0.5c-0.2,0.1-0.5,0.2-0.7,0.3c-0.7,0.4-1.4,0.9-2,1.4c-0.6,0.5-1.2,1.1-1.7,1.7c-0.5,0.5-0.9,1.1-1.2,1.8
		c-1.1,1.9-1.7,4-1.7,6.3c0,2.2,0.6,4.2,1.5,6c0.2,0.4,0.5,0.8,0.7,1.2c0.2,0.3,0.4,0.6,0.6,0.9c0.5,0.6,1.1,1.2,1.7,1.7
		c0.6,0.5,1.3,1,2,1.4c1.1,0.6,2.2,1,3.5,1.3c0.6,0.1,1.3,0.2,1.9,0.2c0.2,0,0.4,0,0.7,0c0.2,0,0.4,0,0.7,0
		C30.9,40.4,31.1,40.4,31.3,40.4z M29.3,37.9c-5.1-0.4-9.2-4.8-9.2-10.2c0-4,2.2-7.5,5.5-9.2c0.4-0.2,0.8-0.4,1.2-0.5
		c0.8-0.3,1.6-0.5,2.5-0.5c0.2,0,0.4,0,0.7,0c0.2,0,0.4,0,0.7,0c5.1,0.4,9.2,4.8,9.2,10.2c0,4-2.2,7.5-5.5,9.2
		c-0.4,0.2-0.8,0.4-1.2,0.5c-0.8,0.3-1.6,0.5-2.5,0.5c-0.2,0-0.4,0-0.7,0C29.8,38,29.6,37.9,29.3,37.9z"/>
	<path class="st0" d="M32.7,36.2c0.4-0.1,0.8-0.3,1.2-0.5c2.8-1.5,4.7-4.5,4.7-7.9c0-4.7-3.5-8.5-7.9-8.9c-0.2,0-0.4,0-0.7,0
		c-0.2,0-0.4,0-0.7,0c-0.7,0.1-1.4,0.2-2,0.4c-0.4,0.1-0.8,0.3-1.2,0.5c-2.8,1.5-4.7,4.5-4.7,7.9c0,4.7,3.5,8.5,7.9,8.9
		c0.2,0,0.4,0,0.7,0c0.2,0,0.4,0,0.7,0C31.4,36.6,32,36.4,32.7,36.2z M29.3,33.7c-2.9-0.3-5.1-2.9-5.1-6c0-2.3,1.2-4.2,2.9-5.3
		c0.4-0.2,0.8-0.4,1.2-0.5c0.3-0.1,0.6-0.2,1-0.2c0.2,0,0.4,0,0.7,0c0.2,0,0.4,0,0.7,0c2.9,0.3,5.1,2.9,5.1,6c0,2.3-1.2,4.2-2.9,5.3
		c-0.4,0.2-0.8,0.4-1.2,0.5c-0.3,0.1-0.6,0.2-1,0.2c-0.2,0-0.4,0-0.7,0C29.8,33.8,29.6,33.7,29.3,33.7z"/>
	<path class="st0" d="M31.2,32.6c0.4-0.1,0.8-0.3,1.2-0.5c1.4-0.9,2.4-2.5,2.4-4.3c0-2.5-1.8-4.6-4.2-4.9c-0.2,0-0.4-0.1-0.7-0.1
		c-0.4,0-0.7,0.3-0.7,0.7S29.6,24,30,24c0.2,0,0.4,0,0.7,0.1c1.6,0.3,2.9,1.8,2.9,3.6c0,1.3-0.6,2.4-1.6,3.1
		c-0.4,0.3-0.8,0.4-1.2,0.5l-0.1-0.2v0.2c-0.2,0-0.4,0.1-0.7,0.1s-0.4,0-0.7-0.1c-1.6-0.3-2.9-1.8-2.9-3.6c0-0.4-0.3-0.7-0.7-0.7
		c-0.4,0-0.7,0.3-0.7,0.7c0,2.5,1.8,4.6,4.2,4.9c0.2,0,0.4,0.1,0.7,0.1s0.4,0,0.7-0.1C30.9,32.6,31,32.6,31.2,32.6z"/>
	<path class="st0" d="M30,9c-10.3,0-18.7,8.4-18.7,18.7c0,10.3,8.4,18.7,18.7,18.7c10.3,0,18.7-8.4,18.7-18.7C48.7,17.4,40.3,9,30,9
		z M29.3,41.7c-7.4-0.4-13.2-6.5-13.2-14c0-5.6,3.3-10.5,8.1-12.7c0.4-0.2,0.8-0.4,1.2-0.5c1.2-0.4,2.6-0.7,3.9-0.8
		c0.2,0,0.4,0,0.7,0c0.2,0,0.4,0,0.7,0c7.4,0.4,13.2,6.5,13.2,14c0,5.6-3.3,10.5-8.1,12.7c-0.4,0.2-0.8,0.4-1.2,0.5
		c-1.2,0.4-2.6,0.7-3.9,0.8c-0.2,0-0.4,0-0.7,0C29.8,41.7,29.6,41.7,29.3,41.7z M29.3,10.4v2.1c-1.5,0.1-3,0.4-4.4,0.9l-0.8-1.9
		C25.8,10.8,27.5,10.4,29.3,10.4z M12.6,27.7c0-7.1,4.2-13.1,10.3-15.9l0.8,1.9c-5.3,2.4-8.9,7.7-8.9,13.9c0,8.2,6.5,14.9,14.6,15.3
		v2.1C20.1,44.7,12.6,37.1,12.6,27.7z M30.7,45.1V43c1.5-0.1,3-0.4,4.4-0.9l0.8,1.9C34.2,44.7,32.5,45,30.7,45.1z M37.1,43.6
		l-0.8-1.9c5.3-2.4,8.9-7.7,8.9-13.9c0-8.2-6.5-14.9-14.6-15.3v-2.1c9.3,0.4,16.7,8,16.7,17.3C47.4,34.8,43.1,40.9,37.1,43.6z"/>
	<path class="st0" d="M45.9,13.1c1.3,0,2.3-1,2.3-2.3s-1-2.3-2.3-2.3s-2.3,1-2.3,2.3S44.6,13.1,45.9,13.1z M45.9,9.8
		c0.5,0,1,0.4,1,1c0,0.5-0.4,1-1,1c-0.5,0-1-0.4-1-1C44.9,10.3,45.4,9.8,45.9,9.8z"/>
	<rect x="24.1" y="61.2" class="st0" width="11.9" height="2.8"/>
</g>
</svg>
