<?xml version="1.0" standalone="no"?>
<!DOCTYPE svg PUBLIC "-//W3C//DTD SVG 1.1//EN" "http://www.w3.org/Graphics/SVG/1.1/DTD/svg11.dtd" >
<svg xmlns="http://www.w3.org/2000/svg" xmlns:xlink="http://www.w3.org/1999/xlink" version="1.1">
<metadata></metadata>
<defs>
<font id="newsgoth_cn_btitalic" horiz-adv-x="1024" >
<font-face units-per-em="2048" ascent="1638" descent="-410" />
<missing-glyph horiz-adv-x="434" />
<glyph horiz-adv-x="0" />
<glyph unicode="&#xd;" horiz-adv-x="434" />
<glyph unicode=" "  horiz-adv-x="434" />
<glyph unicode="&#x09;" horiz-adv-x="434" />
<glyph unicode="&#xa0;" horiz-adv-x="434" />
<glyph unicode="!" horiz-adv-x="526" d="M49 0l41 193h172l-41 -193h-172zM160 473l178 997h151l-231 -997h-98z" />
<glyph unicode="&#x22;" horiz-adv-x="569" d="M98 881v553h101v-553h-101zM371 881v553h102v-553h-102z" />
<glyph unicode="#" horiz-adv-x="1575" d="M117 479l39 109h325l101 276h-353l35 107h354l173 483h127l-168 -483h264l172 483h127l-170 -483h315l-37 -107h-317l-98 -276h340l-37 -109h-340l-170 -479h-129l172 479h-269l-172 -479h-127l170 479h-327zM612 588h267l96 276h-266z" />
<glyph unicode="$" horiz-adv-x="870" d="M8 391q0 23 0.5 34.5t1.5 22.5l113 -8q-1 -8 -1.5 -18.5t-0.5 -30.5q0 -102 32.5 -163t100.5 -87l129 609q-109 119 -157 213.5t-48 187.5q0 151 90.5 238.5t247.5 87.5h21l43 200h100l-45 -219q107 -27 159 -109t52 -225q0 -22 -0.5 -34t-2.5 -23l-112 10q0 6 1 19.5 t1 19.5q0 97 -30.5 154t-92.5 73l-112 -532q117 -119 174 -225t57 -205q0 -176 -99.5 -278.5t-271.5 -102.5q-3 0 -13.5 1t-18.5 1l-54 -252l-100 10l55 260q-110 37 -164.5 129t-54.5 242zM303 1165q0 -69 27.5 -130t87.5 -124l96 457h-16q-87 0 -141 -56.5t-54 -146.5z M350 117h25q104 0 167.5 67t63.5 176q0 80 -35 152.5t-106 140.5z" />
<glyph unicode="%" horiz-adv-x="1507" d="M86 1174q0 129 91 220t220 91t220.5 -91t91.5 -220q0 -130 -91.5 -221t-220.5 -91t-220 91t-91 221zM199 1171q0 -82 57.5 -140t140.5 -58t141 58t58 140q0 84 -58 142.5t-141 58.5q-82 0 -140 -58.5t-58 -142.5zM233 -29l895 1514h115l-897 -1514h-113zM797 287 q0 129 91 220t220 91t220 -91t91 -220t-91 -220.5t-220 -91.5t-220 91.5t-91 220.5zM909 287q0 -83 58 -141t141 -58t141 58t58 141t-58 140.5t-141 57.5t-141 -57.5t-58 -140.5z" />
<glyph unicode="&#x26;" horiz-adv-x="1053" d="M4 340q0 139 81.5 264.5t240.5 229.5q-19 76 -28 140t-9 113q0 192 88 303t239 111q99 0 158.5 -64t59.5 -171q0 -127 -81.5 -241.5t-258.5 -236.5q13 -81 61 -190t129 -246q43 56 78 143t61 203l138 -36q-31 -124 -79.5 -230t-113.5 -194q52 -58 84 -90t63 -60l-108 -98 q-33 27 -65 59.5t-64 71.5q-81 -78 -159.5 -115t-162.5 -37q-151 0 -251.5 106t-100.5 265zM154 350q0 -108 60 -176t155 -68q64 0 119.5 29.5t101.5 87.5q-85 137 -142.5 256.5t-85.5 218.5q-101 -63 -154.5 -152.5t-53.5 -195.5zM430 1108q0 -48 6 -95t19 -95 q117 79 180 171.5t63 182.5q0 56 -27 87.5t-75 31.5q-75 0 -120.5 -76.5t-45.5 -206.5z" />
<glyph unicode="'" horiz-adv-x="295" d="M98 881v553h101v-553h-101z" />
<glyph unicode="(" horiz-adv-x="557" d="M72 401q0 347 118 625t347 471h122q-244 -247 -355 -512t-111 -598q0 -143 23.5 -282t72.5 -277h-121q-49 150 -72.5 292.5t-23.5 280.5z" />
<glyph unicode=")" horiz-adv-x="557" d="M-178 -172q246 249 357.5 513t111.5 597q0 144 -24 282.5t-72 276.5h118q50 -154 74.5 -296t24.5 -277q0 -346 -118 -624.5t-347 -471.5h-125z" />
<glyph unicode="*" d="M176 1116l47 150l316 -144l-29 348h137l-29 -348l316 144l49 -150l-338 -72l236 -256l-131 -96l-170 305l-172 -305l-129 96l233 256z" />
<glyph unicode="+" horiz-adv-x="1706" d="M254 561v98h551v562h98v-562h549v-98h-549v-561h-98v561h-551z" />
<glyph unicode="," horiz-adv-x="436" d="M-104 -305l165 305h-63l39 184h166l-41 -194l-197 -295h-69z" />
<glyph unicode="-" horiz-adv-x="674" d="M47 463l27 127h465l-27 -127h-465z" />
<glyph unicode="." horiz-adv-x="436" d="M-23 0l41 193h172l-40 -193h-173z" />
<glyph unicode="/" horiz-adv-x="569" d="M-31 -190l516 1699h113l-516 -1699h-113z" />
<glyph unicode="0" horiz-adv-x="870" d="M25 326q0 57 6.5 127.5t19.5 154.5q28 178 68 329t90 261q66 149 152 220t200 71q139 0 212 -88.5t73 -257.5q0 -48 -6 -111t-19 -141q-29 -194 -67 -349t-82 -257q-67 -160 -157 -237t-210 -77q-143 0 -211.5 87.5t-68.5 267.5zM164 324q0 -116 36.5 -170t114.5 -54 q55 0 103.5 38t87.5 112q36 65 64.5 155.5t72.5 299.5q31 152 48.5 269.5t17.5 178.5q0 105 -39 158t-117 53q-50 0 -96 -33.5t-82 -95.5q-39 -68 -71.5 -166.5t-72.5 -275.5q-33 -150 -50 -270t-17 -199z" />
<glyph unicode="1" horiz-adv-x="870" d="M43 0l27 127h186l248 1173q-33 -10 -78 -15t-113 -5l19 88q83 18 150 46.5t122 70.5h78l-287 -1358h183l-27 -127h-508z" />
<glyph unicode="2" horiz-adv-x="870" d="M-92 0q11 125 90 260t225 277q75 73 204.5 189.5t168.5 162.5q68 81 100.5 151.5t32.5 137.5q0 88 -54 141t-145 53q-111 0 -174.5 -76.5t-79.5 -228.5h-130q7 199 109.5 312.5t274.5 113.5q161 0 254 -83t93 -226q0 -85 -32 -165.5t-95 -154.5q-71 -82 -227 -216 q-60 -51 -89 -77q-170 -151 -251 -251t-111 -189h563l-27 -131h-700z" />
<glyph unicode="3" horiz-adv-x="870" d="M-14 340v37h131v-23q0 -122 49 -188t141 -66q107 0 179.5 106t72.5 267q0 121 -66.5 182.5t-197.5 61.5h-27l25 112q11 -1 23.5 -1.5t35.5 -0.5q163 0 247.5 86t84.5 250q0 96 -46.5 149.5t-129.5 53.5q-76 0 -125.5 -48t-69.5 -140h-135q25 149 110.5 230t219.5 81 q151 0 235 -85.5t84 -240.5q0 -154 -73 -261.5t-205 -147.5q81 -41 118.5 -113t37.5 -188q0 -217 -112 -351.5t-292 -134.5q-151 0 -233 97t-82 276z" />
<glyph unicode="4" horiz-adv-x="870" d="M-31 340v47l672 1079h195l-213 -1003h159l-26 -123h-160l-78 -365h-137l78 365h-490zM145 463h340l164 751q8 33 19.5 71t29.5 87z" />
<glyph unicode="5" horiz-adv-x="870" d="M18 348v37h129v-23q0 -121 49 -184t142 -63q57 0 107 38t92 113q38 69 59.5 156t21.5 170q0 122 -49 185t-143 63q-55 0 -96.5 -25.5t-65.5 -73.5l-121 15l215 704h500l-22 -131h-394l-129 -420q32 27 72 40.5t88 13.5q136 0 215.5 -94.5t79.5 -256.5q0 -130 -37 -257.5 t-98 -213.5q-63 -86 -135.5 -125t-169.5 -39q-147 0 -228.5 97t-81.5 274z" />
<glyph unicode="6" horiz-adv-x="870" d="M27 352q0 45 4.5 96t13.5 109q29 178 65.5 324t71.5 231q80 195 183.5 289t238.5 94q129 0 197.5 -78t68.5 -223v-29l-139 1q1 6 1.5 15.5t0.5 26.5q0 78 -35.5 120t-101.5 42q-122 0 -210 -143.5t-142 -431.5q46 51 104 76.5t127 25.5q136 0 213.5 -90t77.5 -248 q0 -267 -118.5 -432.5t-307.5 -165.5q-152 0 -232.5 101t-80.5 290zM172 342q0 -128 44 -191t134 -63q118 0 195.5 132t77.5 339q0 108 -48 165.5t-137 57.5q-60 0 -116 -31t-111 -96q-19 -85 -29 -163.5t-10 -149.5z" />
<glyph unicode="7" horiz-adv-x="870" d="M4 -23l729 1362h-506l23 121h665l-18 -86l-723 -1397h-170z" />
<glyph unicode="8" horiz-adv-x="870" d="M-12 319q0 157 93.5 282t264.5 196q-71 72 -105 148t-34 161q0 160 95 269.5t233 109.5q157 0 248 -83t91 -226q0 -136 -75.5 -245.5t-214.5 -172.5q79 -78 119 -169.5t40 -193.5q0 -182 -116.5 -301t-294.5 -119q-162 0 -253 91.5t-91 252.5zM135 307q0 -85 57.5 -144 t141.5 -59q109 0 184.5 84.5t75.5 208.5q0 85 -37.5 164t-107.5 144q-149 -49 -231.5 -154t-82.5 -244zM344 1120q0 -79 35.5 -151t103.5 -131q118 46 185 133.5t67 193.5q0 83 -54 140t-134 57q-89 0 -146 -68t-57 -174z" />
<glyph unicode="9" horiz-adv-x="870" d="M2 262v29h139q-1 -8 -1.5 -16.5t-0.5 -26.5q0 -80 35.5 -122t101.5 -42q123 0 211 143.5t142 431.5q-47 -50 -105 -76t-127 -26q-135 0 -213 90t-78 248q0 268 118.5 433t307.5 165q152 0 232 -100t80 -289q0 -44 -5 -97t-14 -110q-30 -181 -65.5 -327t-69.5 -228 q-79 -195 -183 -289t-239 -94q-127 0 -196.5 78.5t-69.5 224.5zM250 895q0 -108 47.5 -165.5t136.5 -57.5q60 0 115 31t110 96q21 90 31 168t10 145q0 128 -44 191t-134 63q-118 0 -195 -132t-77 -339z" />
<glyph unicode=":" horiz-adv-x="483" d="M18 0l41 193h168l-41 -193h-168zM129 555l41 193h166l-41 -193h-166z" />
<glyph unicode=";" horiz-adv-x="483" d="M-94 -305l168 305h-64l39 184h168l-41 -194l-201 -295h-69zM129 555l41 193h166l-41 -193h-166z" />
<glyph unicode="&#x3c;" horiz-adv-x="1706" d="M264 569v82l1178 484v-109l-1022 -416l1022 -413v-109z" />
<glyph unicode="=" horiz-adv-x="1706" d="M254 375v98h1198v-98h-1198zM254 748v98h1198v-98h-1198z" />
<glyph unicode="&#x3e;" horiz-adv-x="1706" d="M264 88v109l1022 413l-1022 416v109l1178 -484v-82z" />
<glyph unicode="?" horiz-adv-x="702" d="M92 0l41 193h172l-41 -193h-172zM176 1270q25 113 93.5 171t176.5 58q121 0 191 -64.5t70 -174.5q0 -53 -13 -103t-39 -96q-45 -82 -151 -196q-40 -43 -58 -65q-66 -78 -102.5 -157.5t-46.5 -169.5h-109q11 100 51 192t123 203q21 27 61 78q150 189 150 305q0 64 -35 102 t-94 38q-56 0 -96 -39t-59 -113z" />
<glyph unicode="@" horiz-adv-x="2048" d="M117 537q0 204 86 381.5t252 314.5q132 109 298.5 165t360.5 56q162 0 308 -44t249 -124q129 -99 194.5 -228t65.5 -280q0 -171 -62 -309.5t-181 -232.5q-70 -54 -149 -82.5t-161 -28.5q-97 0 -144.5 37.5t-47.5 113.5q0 4 1 14t1 15q-51 -87 -127 -133.5t-168 -46.5 q-153 0 -233 83.5t-80 244.5q0 230 135 388t329 158q94 0 158 -41t96 -122l60 125h94l-139 -562q-10 -44 -13.5 -62.5t-3.5 -29.5q0 -43 28.5 -67.5t78.5 -24.5q52 0 106.5 21t104.5 61q97 77 151 204.5t54 282.5q0 254 -198 417t-509 163q-175 0 -320 -49.5t-262 -149.5 q-147 -126 -222 -290.5t-75 -362.5q0 -174 60 -305t184 -232q102 -82 244 -128t301 -46q171 0 334.5 49.5t300.5 143.5l39 -55q-147 -111 -311 -166.5t-343 -55.5q-191 0 -347 46.5t-275 138.5q-155 118 -229 273.5t-74 361.5zM702 444q0 -111 55 -173t152 -62 q107 0 189.5 71.5t111.5 188.5l62 248q-18 93 -75.5 145.5t-139.5 52.5q-154 0 -254.5 -133.5t-100.5 -337.5z" />
<glyph unicode="A" horiz-adv-x="924" d="M-90 0l616 1470h215v-1470h-141v428h-371l-176 -428h-143zM285 559h315v797z" />
<glyph unicode="B" horiz-adv-x="987" d="M-6 0l309 1470h225q220 0 323 -79.5t103 -247.5q0 -152 -81 -255.5t-224 -133.5q104 -36 155.5 -109t51.5 -184q0 -98 -29.5 -176.5t-91.5 -145.5q-70 -76 -169.5 -107.5t-291.5 -31.5h-280zM168 133h164q173 0 267.5 86t94.5 242q0 138 -76.5 194t-273.5 56h-53z M318 832q51 -4 86.5 -5.5t56.5 -1.5q169 0 263.5 83t94.5 231q0 108 -65.5 159.5t-204.5 51.5h-123z" />
<glyph unicode="C" horiz-adv-x="965" d="M53 403q0 213 49.5 426t135.5 377q74 142 174.5 215.5t218.5 73.5q147 0 233 -100.5t86 -272.5q0 -21 -1.5 -47.5t-4.5 -58.5h-147q4 28 6 55.5t2 52.5q0 111 -48.5 174.5t-131.5 63.5q-85 0 -154 -66t-123 -198q-66 -163 -103.5 -352.5t-37.5 -360.5q0 -141 46 -212 t138 -71q99 0 179.5 96.5t123.5 268.5h146q-56 -238 -177.5 -370t-285.5 -132q-153 0 -238.5 115t-85.5 323z" />
<glyph unicode="D" horiz-adv-x="999" d="M-6 0l313 1470h150q260 0 376.5 -112t116.5 -359q0 -104 -20 -225.5t-60 -255.5q-40 -138 -93 -238.5t-115 -160.5q-69 -65 -164 -92t-314 -27h-41h-149zM174 137h98q117 0 191.5 27t120.5 86q35 44 64 101.5t50 125.5q46 144 70.5 276.5t24.5 239.5q0 175 -69 258.5 t-212 83.5h-84z" />
<glyph unicode="E" horiz-adv-x="899" d="M-10 0l311 1470h682l-29 -139h-530l-109 -506h396l-27 -127h-395l-119 -565h559l-29 -133h-710z" />
<glyph unicode="F" horiz-adv-x="874" d="M-10 0l311 1470h682l-31 -139h-530l-109 -510h398l-27 -125h-395l-150 -696h-149z" />
<glyph unicode="G" horiz-adv-x="991" d="M53 403q0 213 49.5 426t135.5 377q74 142 174.5 215.5t218.5 73.5q150 0 234.5 -101.5t84.5 -281.5q0 -24 -1.5 -48t-4.5 -48h-147q3 26 4.5 51t1.5 47q0 121 -45.5 184.5t-132.5 63.5q-85 0 -154 -66t-123 -198q-66 -163 -103.5 -353t-37.5 -362q0 -141 46 -210t140 -69 q121 0 202.5 113.5t121.5 337.5h-203l27 127h360l-145 -682h-99l-8 100q-58 -67 -127 -101t-147 -34q-151 0 -236.5 116t-85.5 322z" />
<glyph unicode="H" horiz-adv-x="1042" d="M-10 0l311 1470h152l-134 -626h449l135 626h150l-312 -1470h-151l149 707h-448l-152 -707h-149z" />
<glyph unicode="I" horiz-adv-x="432" d="M-16 0l313 1470h149l-311 -1470h-151z" />
<glyph unicode="J" horiz-adv-x="645" d="M-98 20l37 132q55 -22 95 -32.5t66 -10.5q61 0 94 46.5t70 217.5l234 1097h149l-250 -1169q-36 -173 -106.5 -251.5t-188.5 -78.5q-43 0 -93.5 12.5t-106.5 36.5z" />
<glyph unicode="K" horiz-adv-x="922" d="M-12 0l313 1470h154l-154 -714l557 714h172l-407 -518l163 -952h-153l-131 815l-256 -321l-105 -494h-153z" />
<glyph unicode="L" horiz-adv-x="819" d="M-10 0l311 1470h150l-283 -1329h561l-29 -141h-710z" />
<glyph unicode="M" horiz-adv-x="1331" d="M-10 0l311 1470h238l36 -1026q0 -11 1.5 -34t1.5 -35q0 -33 -4 -104l-1 -7q13 57 27.5 101t30.5 77l465 1028h245l-313 -1470h-139l289 1368l-625 -1368h-92l-43 1376l-293 -1376h-135z" />
<glyph unicode="N" horiz-adv-x="1085" d="M-12 0l311 1470h227l172 -1056q6 -37 9.5 -75t3.5 -77v-31q4 59 10 108.5t12 84.5l217 1046h146l-312 -1470h-147l-221 1370l-291 -1370h-137z" />
<glyph unicode="O" horiz-adv-x="1006" d="M53 408q0 210 49.5 422.5t135.5 375.5q74 142 174.5 215.5t218.5 73.5q155 0 237 -112.5t82 -325.5q0 -90 -11 -187t-34 -202q-31 -150 -74.5 -268t-101.5 -207q-68 -106 -160.5 -164t-193.5 -58q-156 0 -239 113t-83 324zM207 383q0 -138 44 -207.5t132 -69.5 q82 0 149 64.5t121 196.5q67 162 105.5 353t38.5 361q0 139 -43.5 209t-128.5 70q-86 0 -154.5 -65t-122.5 -197q-66 -160 -103.5 -350t-37.5 -365z" />
<glyph unicode="P" horiz-adv-x="983" d="M-10 0l309 1470h240q212 0 318 -89t106 -269q0 -116 -42 -209t-120 -153q-64 -49 -147.5 -70t-266.5 -21h-106l-138 -659h-153zM309 786h142q179 0 270.5 84.5t91.5 249.5q0 117 -65 169t-211 52h-113z" />
<glyph unicode="Q" horiz-adv-x="1006" d="M53 403q0 213 49.5 427t135.5 376q74 142 174.5 215.5t218.5 73.5q155 0 237 -112.5t82 -325.5q0 -265 -69.5 -513t-184.5 -397q40 -63 81.5 -91.5t92.5 -28.5l-16 -121q-9 -2 -17.5 -3t-23.5 -1q-59 0 -110 37.5t-97 113.5q-52 -41 -110.5 -61.5t-124.5 -20.5 q-153 0 -235.5 112.5t-82.5 319.5zM207 387q0 -140 43.5 -211.5t130.5 -71.5q43 0 81 16.5t70 49.5q-17 43 -40.5 65t-58.5 27l22 133q49 -15 87 -44t68 -75q89 183 138 395t49 410q0 139 -43.5 209t-128.5 70q-86 0 -154.5 -65t-122.5 -197q-66 -165 -103.5 -353.5 t-37.5 -357.5z" />
<glyph unicode="R" horiz-adv-x="987" d="M-10 0l309 1470h240q212 0 319 -86.5t107 -259.5q0 -157 -82 -266t-234 -153l101 -705h-150l-97 688q-44 -3 -86.5 -4.5t-82.5 -1.5h-53l-138 -682h-153zM309 807h142q179 0 270.5 82t91.5 241q0 115 -64 165.5t-212 50.5h-113z" />
<glyph unicode="S" horiz-adv-x="901" d="M-8 354q0 6 1 18.5t1 18.5l143 -8q0 -6 -1 -18.5t-1 -18.5q0 -122 55 -188t156 -66q118 0 189 75t71 200q0 76 -26.5 137.5t-90.5 128.5q-22 24 -71 71q-126 123 -174 207q-30 53 -45 106.5t-15 106.5q0 159 101.5 262t259.5 103q162 0 250 -89.5t88 -254.5 q0 -23 -0.5 -34.5t-1.5 -22.5l-133 8v8q0 138 -48.5 202t-150.5 64q-103 0 -165 -64.5t-62 -170.5q0 -56 22 -110t62 -97q22 -24 65 -69q146 -152 193 -218q40 -57 60.5 -122.5t20.5 -137.5q0 -180 -113 -294t-294 -114q-161 0 -253.5 101.5t-92.5 279.5z" />
<glyph unicode="T" horiz-adv-x="788" d="M147 1339l27 131h741l-26 -131h-279l-284 -1339h-154l283 1339h-308z" />
<glyph unicode="U" horiz-adv-x="1053" d="M61 272q0 37 7.5 90t21.5 115l211 993h152l-205 -964q-5 -23 -14 -64q-27 -122 -27 -176q0 -77 52.5 -122.5t143.5 -45.5q121 0 187.5 77t107.5 274l217 1021h148l-219 -1034q-55 -257 -159 -362t-296 -105q-152 0 -240 81t-88 222z" />
<glyph unicode="V" horiz-adv-x="858" d="M162 1470h145v-1101q0 -29 -3 -69t-9 -93q16 55 29 94t18 51l489 1118h152l-661 -1470h-150z" />
<glyph unicode="W" horiz-adv-x="1264" d="M156 0l2 1470h137l-10 -1069q0 -43 -3 -89t-7 -90q9 53 21 99t26 85l376 1064h123l21 -1034q0 -44 -3 -88.5t-7 -90.5q7 42 18.5 87.5t28.5 97.5l333 1028h148l-500 -1470h-133l-12 1061q0 55 2.5 100t7.5 88q-7 -38 -20 -83.5t-33 -102.5l-383 -1063h-133z" />
<glyph unicode="X" horiz-adv-x="862" d="M-127 0l489 799l-172 671h150l125 -528l336 528h153l-442 -694l195 -776h-148l-149 629l-379 -629h-158z" />
<glyph unicode="Y" horiz-adv-x="799" d="M111 1470h147l135 -665l400 665h161l-526 -866l-127 -604h-160l140 643z" />
<glyph unicode="Z" horiz-adv-x="879" d="M-88 0l22 111l826 1228h-504l29 131h678l-25 -110l-823 -1225h563l-29 -135h-737z" />
<glyph unicode="[" horiz-adv-x="551" d="M-20 -174l348 1644h362l-18 -84h-221l-314 -1476h240l-17 -84h-380z" />
<glyph unicode="\" horiz-adv-x="569" d="M143 1509h109l207 -1699h-109z" />
<glyph unicode="]" horiz-adv-x="551" d="M-180 -176l18 86h221l314 1476h-240l17 82h380l-348 -1644h-362z" />
<glyph unicode="^" horiz-adv-x="2048" d="M422 901l532 557h140l530 -557h-143l-457 455l-459 -455h-143z" />
<glyph unicode="_" d="M0 -383h1024v-100h-1024v100z" />
<glyph unicode="`" d="M358 1538h166l219 -348h-98z" />
<glyph unicode="a" horiz-adv-x="860" d="M-10 211q0 173 150 292t442 177q11 48 16.5 86.5t5.5 62.5q0 60 -38 94.5t-103 34.5q-69 0 -123 -45.5t-86 -130.5l-119 47q52 119 131 177.5t185 58.5q134 0 212 -68t78 -184q0 -22 -7.5 -73t-22.5 -126l-84 -398q-12 -51 -16.5 -89.5t-4.5 -77.5v-49h-133v88 q-64 -53 -127 -79.5t-127 -26.5q-104 0 -166.5 62.5t-62.5 166.5zM129 221q0 -61 30 -91t93 -30q61 0 121.5 32t115.5 93l70 332q-203 -39 -316.5 -127.5t-113.5 -208.5z" />
<glyph unicode="b" horiz-adv-x="874" d="M-27 0l312 1470h141l-102 -497q50 50 101.5 75t104.5 25q117 0 181.5 -93t64.5 -263q0 -132 -31 -263t-90 -243q-59 -113 -137 -170t-172 -57q-64 0 -116.5 27t-94.5 83l-20 -94h-142zM158 199q37 -48 81 -72.5t93 -24.5q48 0 90.5 28t77.5 83q62 95 100.5 240.5 t38.5 289.5q0 108 -38 163t-114 55t-134 -57.5t-79 -153.5z" />
<glyph unicode="c" horiz-adv-x="793" d="M6 322q0 181 58.5 355.5t154.5 287.5q47 54 106.5 83t125.5 29q127 0 197.5 -81t70.5 -228v-25h-135v29q0 90 -34.5 138t-98.5 48q-50 0 -93.5 -32t-76.5 -95q-63 -118 -101.5 -265.5t-38.5 -264.5q0 -103 34 -154t101 -51q65 0 121.5 57t102.5 169l131 -17 q-50 -157 -143.5 -242.5t-215.5 -85.5q-131 0 -198.5 87.5t-67.5 257.5z" />
<glyph unicode="d" horiz-adv-x="874" d="M10 334q0 133 31.5 265t89.5 243q59 112 138 169.5t173 57.5q63 0 114 -27t95 -84l111 512h139l-313 -1470h-139l14 80q-51 -51 -102 -75.5t-105 -24.5q-117 0 -181.5 92.5t-64.5 261.5zM147 307q0 -107 38 -161t114 -54t134 57t79 154l117 551q-37 47 -81.5 71.5 t-92.5 24.5t-90.5 -28t-77.5 -82q-62 -95 -101 -241.5t-39 -291.5z" />
<glyph unicode="e" horiz-adv-x="823" d="M6 322q0 181 58.5 355.5t154.5 287.5q47 54 106.5 83t125.5 29q132 0 202 -86t70 -250q0 -36 -6 -92t-21 -147h-530q-12 -65 -18.5 -115.5t-6.5 -83.5q0 -103 34 -155t101 -52q64 0 120 57t104 169l131 -17q-59 -163 -149 -245.5t-210 -82.5q-131 0 -198.5 87.5 t-67.5 257.5zM199 623h376q5 30 7 59.5t2 60.5q0 112 -32 163.5t-101 51.5q-81 0 -143.5 -83t-108.5 -252z" />
<glyph unicode="f" horiz-adv-x="465" d="M-6 0l199 946h-160l22 105h160l41 200q29 135 82.5 185.5t163.5 50.5q17 0 49.5 -5t77.5 -14l-21 -104q-27 8 -52 12t-48 4q-57 0 -84 -32t-51 -156l-27 -141h174l-22 -105h-174l-199 -946h-131z" />
<glyph unicode="g" horiz-adv-x="762" d="M-133 -115q0 76 46 135.5t138 102.5q-37 25 -54 52t-17 58q0 52 35 91.5t114 76.5q-26 30 -38.5 68.5t-12.5 91.5q0 123 48.5 243t129.5 197q40 39 89 58.5t106 19.5q72 0 120.5 -24.5t79.5 -77.5q31 44 73.5 65t104.5 23l-18 -121q-40 -2 -73.5 -14.5t-61.5 -36.5 q0 -246 -106.5 -403.5t-268.5 -157.5q-16 0 -36 3t-52 11q-46 -11 -72 -32t-26 -46q0 -27 24.5 -44t98.5 -36l180 -47q93 -24 143.5 -81t50.5 -138q0 -126 -108.5 -202t-290.5 -76q-155 0 -250.5 67t-95.5 174zM-2 -100q0 -63 63.5 -103.5t165.5 -40.5q116 0 184 41t68 109 q0 65 -65 101.5t-252 68.5q-86 -37 -125 -79t-39 -97zM211 565q0 -58 26.5 -88.5t77.5 -30.5q40 0 76 25.5t64 73.5q43 75 67.5 157t24.5 152q0 62 -26 93.5t-77 31.5q-46 0 -84 -30.5t-71 -94.5q-37 -72 -57.5 -149t-20.5 -140z" />
<glyph unicode="h" horiz-adv-x="872" d="M-27 0l312 1470h141l-113 -532q58 66 123 98.5t137 32.5q91 0 143 -52t52 -143q0 -21 -3.5 -49t-10.5 -63l-162 -762h-141l163 770q1 4 3 13q10 52 10 73q0 48 -24.5 71t-76.5 23q-56 0 -118.5 -35t-118.5 -98l-174 -817h-142z" />
<glyph unicode="i" horiz-adv-x="395" d="M-27 0l224 1053h139l-221 -1053h-142zM254 1317l33 153h139l-33 -153h-139z" />
<glyph unicode="j" horiz-adv-x="395" d="M-253 -334l24 107q18 -3 33.5 -4.5t29.5 -1.5q50 0 75 31t54 163l234 1092h139l-221 -1053q-50 -230 -99.5 -289t-148.5 -59q-28 0 -58 3.5t-62 10.5zM254 1317l33 153h139l-33 -153h-139z" />
<glyph unicode="k" horiz-adv-x="750" d="M-27 0l312 1470h141l-188 -870l403 453h145l-278 -312l92 -741h-137l-66 621l-202 -226l-80 -395h-142z" />
<glyph unicode="l" horiz-adv-x="395" d="M-27 0l312 1470h141l-311 -1470h-142z" />
<glyph unicode="m" horiz-adv-x="1348" d="M-27 0l224 1053h122l-24 -123q79 74 145 106.5t133 32.5q78 0 125 -35.5t66 -107.5q88 79 153 111t132 32q91 0 142.5 -51.5t51.5 -143.5q0 -22 -3.5 -50t-10.5 -62l-162 -762h-139l164 771q5 28 7.5 48.5t2.5 36.5q0 48 -24 71t-74 23q-58 0 -118.5 -33.5t-121.5 -99.5 l-174 -817h-141l165 770q8 38 10.5 56t2.5 30q0 48 -24 71t-75 23q-57 0 -117.5 -33.5t-121.5 -99.5l-174 -817h-142z" />
<glyph unicode="n" horiz-adv-x="872" d="M-27 0l224 1053h122l-24 -123q74 69 143 104t133 35q94 0 145.5 -51t51.5 -144q0 -21 -3.5 -49t-10.5 -63l-162 -762h-141l163 770l2 8q11 57 11 78q0 47 -25.5 70.5t-75.5 23.5q-55 0 -115.5 -33.5t-121.5 -99.5l-174 -817h-142z" />
<glyph unicode="o" horiz-adv-x="817" d="M6 324q0 180 58 354t155 287q47 54 106.5 83t125.5 29q134 0 204 -89t70 -259q0 -169 -57 -342.5t-150 -288.5q-47 -58 -110.5 -89.5t-133.5 -31.5q-133 0 -200.5 87t-67.5 260zM143 291q0 -97 33.5 -146t99.5 -49q55 0 104.5 41.5t84.5 116.5q57 124 89 258t32 246 q0 99 -34.5 149.5t-100.5 50.5q-63 0 -112.5 -49t-92.5 -153q-49 -120 -76 -241.5t-27 -223.5z" />
<glyph unicode="p" horiz-adv-x="879" d="M-100 -356l299 1409h116l-10 -95q60 60 114 87.5t111 27.5q117 0 181.5 -93t64.5 -263q0 -132 -31 -263t-90 -243t-137.5 -169.5t-173.5 -57.5q-64 0 -118 28t-91 82l-94 -450h-141zM158 199q39 -49 82 -73t92 -24q48 0 90.5 28t77.5 83q62 95 100.5 240.5t38.5 289.5 q0 108 -38 163t-114 55t-134 -57.5t-79 -153.5z" />
<glyph unicode="q" horiz-adv-x="874" d="M10 334q0 133 31.5 265t89.5 243q60 113 138 170t173 57q67 0 118.5 -27t90.5 -84l21 95h141l-301 -1409h-139l90 436q-51 -51 -102 -75.5t-105 -24.5q-117 0 -181.5 92.5t-64.5 261.5zM147 307q0 -107 38 -161t114 -54t134 57t79 154l117 551q-37 47 -81.5 71.5 t-92.5 24.5t-90.5 -28t-77.5 -82q-62 -95 -101 -241.5t-39 -291.5z" />
<glyph unicode="r" horiz-adv-x="532" d="M-27 0l224 1053h122l-24 -123q59 70 116.5 102.5t123.5 32.5q7 0 16 -1t26 -3l-32 -139q-9 2 -19 3t-28 1q-66 0 -119.5 -37t-102.5 -115l-161 -774h-142z" />
<glyph unicode="s" horiz-adv-x="766" d="M-43 270h129q11 -89 55.5 -131.5t126.5 -42.5q81 0 128.5 47.5t47.5 126.5q0 45 -18 89t-49 73q-18 17 -52 48q-212 197 -212 327q0 118 78.5 194t201.5 76q115 0 187.5 -64.5t95.5 -187.5l-115 -18q-18 80 -59.5 119t-108.5 39q-66 0 -104.5 -40t-38.5 -108 q0 -77 114 -181q11 -10 16 -15q123 -112 162.5 -183.5t39.5 -156.5q0 -137 -87.5 -220.5t-232.5 -83.5q-136 0 -211 72.5t-94 220.5z" />
<glyph unicode="t" horiz-adv-x="494" d="M29 180q0 21 3.5 47.5t12.5 67.5l150 643h-148l25 115h149l82 338h135l-82 -338h185l-25 -115h-186l-152 -657q-6 -28 -9 -49t-3 -35q0 -50 26 -73.5t82 -23.5q17 0 53 4h5l-25 -112q-22 -3 -39 -4.5t-32 -1.5q-100 0 -153.5 50.5t-53.5 143.5z" />
<glyph unicode="u" horiz-adv-x="872" d="M20 178q0 21 4 50t11 63l162 762h141l-166 -772q-5 -22 -7.5 -42.5t-2.5 -41.5q0 -48 24.5 -71.5t73.5 -23.5q57 0 119.5 34.5t120.5 99.5l174 817h141l-223 -1053h-125l27 121q-78 -73 -144 -105t-135 -32q-91 0 -143 51.5t-52 142.5z" />
<glyph unicode="v" horiz-adv-x="737" d="M86 1053h141l6 -932l377 932h148l-445 -1053h-207z" />
<glyph unicode="w" horiz-adv-x="1128" d="M76 0l8 1053h123l-12 -699q0 -38 -3 -76.5t-8 -72.5q10 32 23 67t31 76l315 705h127v-701q0 -42 -3.5 -81.5t-10.5 -75.5q10 43 24 82.5t31 76.5l301 699h127l-461 -1053h-113v762q1 34 4.5 72.5t10.5 78.5q-11 -37 -24.5 -74t-30.5 -75l-349 -764h-110z" />
<glyph unicode="x" horiz-adv-x="672" d="M-137 0l370 551l-151 502h129l117 -375l252 375h131l-336 -506l170 -547h-131l-123 424l-285 -424h-143z" />
<glyph unicode="y" horiz-adv-x="696" d="M-158 -339l9 116q18 -3 25.5 -3.5t14.5 -0.5q78 0 133 55.5t101 181.5l-45 1043h125l24 -734v-30q0 -25 -1.5 -54.5t-4.5 -61.5q8 38 19 74t26 72l324 734h127l-526 -1184q-51 -113 -121 -162t-181 -49q-20 0 -30 0.5t-19 2.5z" />
<glyph unicode="z" horiz-adv-x="698" d="M-96 0l20 98l604 846h-385l23 109h543l-17 -84l-604 -850h424l-27 -119h-581z" />
<glyph unicode="{" d="M174 477v109q9 0 23.5 -1t21.5 -1q138 0 195 63t57 217v242q0 223 70 297t266 74h47v-107h-37q-131 0 -177 -49.5t-46 -204.5v-242q0 -168 -43.5 -240t-153.5 -104q110 -31 153.5 -103t43.5 -241v-241q0 -155 45 -204.5t170 -49.5q7 0 22 1t23 1v-107h-47 q-197 0 -266.5 72.5t-69.5 296.5v244q0 154 -57 217t-195 63q-7 0 -21.5 -1t-23.5 -1z" />
<glyph unicode="|" d="M459 -483v2048h108v-2048h-108z" />
<glyph unicode="}" d="M172 -307h39q130 0 175.5 49t45.5 203v241q0 171 43 242t154 102q-111 32 -154 103t-43 241v242q0 157 -45 206.5t-170 49.5q-7 0 -22 -1t-23 -1v107h47q196 0 266 -74t70 -297v-242q0 -154 57 -217t195 -63q7 0 22 1t23 1v-109q-8 0 -23 1t-22 1q-138 0 -195 -63 t-57 -217v-244q0 -223 -69.5 -296t-266.5 -73h-47v107z" />
<glyph unicode="~" horiz-adv-x="1706" d="M178 471v113q106 73 202 109t185 36q104 0 272 -61q11 -4 18 -7q9 -3 31 -11q167 -60 257 -60q85 0 177 38t210 122v-113q-102 -72 -198 -107.5t-189 -35.5q-99 0 -260 57q-20 7 -29 10q-5 2 -16 6q-176 64 -273 64q-83 0 -175 -38t-212 -122z" />
<glyph unicode="&#xa1;" horiz-adv-x="526" d="M49 0l232 995h98l-178 -995h-152zM276 1276l41 194h172l-40 -194h-173z" />
<glyph unicode="&#xa2;" horiz-adv-x="870" d="M45 295q0 194 57.5 372t157.5 296q47 56 106 85t126 29q17 0 26 -0.5t17 -0.5l75 233h99l-84 -262q69 -36 102 -107.5t33 -185.5v-11h-119v25q0 58 -13.5 97.5t-41.5 66.5l-274 -836q5 -1 11 -1.5t19 -0.5q65 0 114.5 53.5t94.5 171.5l121 -14q-57 -159 -147 -243.5 t-203 -84.5q-19 0 -29 1t-19 4l-79 -236l-99 -4l88 266q-67 30 -103 104t-36 183zM166 295q0 -69 13.5 -104.5t45.5 -55.5l273 830h-15q-57 0 -102 -35.5t-82 -110.5q-61 -123 -97 -266t-36 -258z" />
<glyph unicode="&#xa3;" horiz-adv-x="870" d="M-31 -25v160q138 89 208.5 217t70.5 289q0 7 -1 20.5t-1 20.5h-174l20 106h154q0 58 -3 147.5t-3 121.5q0 207 90 320.5t254 113.5q137 0 217 -90.5t80 -249.5q0 -18 -3 -64q-1 -11 -1 -18h-138q1 5 1 13q3 47 3 65q0 110 -42.5 165.5t-127.5 55.5q-97 0 -146.5 -85 t-49.5 -251q0 -43 4.5 -124t5.5 -120h209l-18 -106h-189v-31q0 -126 -36.5 -230.5t-110.5 -191.5q52 -57 109 -86.5t112 -29.5q89 0 134.5 68.5t48.5 205.5h138v-6q0 -192 -82 -300t-229 -108q-73 0 -146.5 39t-152.5 119q-61 -66 -114 -106.5t-91 -49.5z" />
<glyph unicode="&#xa4;" horiz-adv-x="1241" d="M90 420l205 207q-45 61 -67.5 125.5t-22.5 132.5t22.5 133.5t67.5 126.5l-205 205l66 65l204 -205q60 46 124.5 68t136.5 22t138.5 -22.5t123.5 -67.5l204 205l66 -65l-205 -205q44 -59 66 -125t22 -135t-22 -134t-66 -124l205 -207l-66 -66l-204 205q-59 -45 -125 -67.5 t-137 -22.5t-135 22t-126 68l-204 -205zM297 887q0 -134 96 -230t230 -96q133 0 227 96t94 230q0 133 -94 227t-227 94q-134 0 -230 -94.5t-96 -226.5z" />
<glyph unicode="&#xa5;" horiz-adv-x="799" d="M-8 637l16 76h289l-29 135h-231l18 76h197l-111 536h138l137 -672l403 672h146l-328 -536h192l-16 -76h-223l-84 -135h278l-16 -76h-307l-23 -39l-127 -598h-139l141 637h-321z" />
<glyph unicode="&#xa6;" d="M459 -350v758h108v-758h-108zM459 674v758h108v-758h-108z" />
<glyph unicode="&#xa7;" d="M78 -8l104 74q49 -70 100.5 -104t106.5 -34q61 0 100 38t39 97q0 43 -22 94t-94 162l-125 193q-70 109 -100.5 183.5t-30.5 133.5q0 100 61 163t158 63q17 0 34 -2t33 -6q-43 73 -61.5 124.5t-18.5 96.5q0 103 72.5 166t192.5 63q90 0 159.5 -39t137.5 -127l-97 -69 q-54 66 -98.5 94t-91.5 28q-60 0 -97.5 -33t-37.5 -85q0 -68 95 -214q19 -30 30 -46l118 -187q60 -93 89.5 -167.5t29.5 -131.5q0 -99 -60.5 -162t-156.5 -63q-20 0 -37 2.5t-32 7.5q47 -72 69.5 -131t22.5 -113q0 -114 -77.5 -182.5t-205.5 -68.5q-95 0 -171.5 45 t-137.5 137zM295 838q0 -42 33 -112t100 -171q65 -98 101.5 -127t78.5 -29q54 0 86.5 31t32.5 82q0 44 -35 117t-108 182q-55 81 -92.5 111t-79.5 30q-51 0 -84 -32.5t-33 -81.5z" />
<glyph unicode="&#xa8;" d="M383 1253l39 189h160l-39 -189h-160zM702 1253l41 189h160l-41 -189h-160z" />
<glyph unicode="&#xa9;" horiz-adv-x="1706" d="M121 723q0 145 56.5 279.5t162.5 242.5q101 103 232 157t280 54t283.5 -55.5t238.5 -159.5q102 -102 156.5 -235.5t54.5 -282.5q0 -150 -53.5 -281t-157.5 -233q-107 -106 -242 -162.5t-280 -56.5t-278 55.5t-238 161.5q-105 104 -160 237t-55 279zM201 723 q0 -129 49.5 -247t142.5 -212q94 -93 212 -142.5t247 -49.5q130 0 250.5 50t216.5 144q91 89 138.5 206t47.5 251q0 132 -48.5 251t-139.5 210q-94 94 -213 143t-252 49q-132 0 -249 -48t-208 -140q-94 -96 -144 -215.5t-50 -249.5zM469 727q0 203 107.5 326t283.5 123 q135 0 226.5 -72t103.5 -189h-117q-18 80 -75 124t-142 44q-122 0 -190 -95t-68 -267q0 -166 69 -260t189 -94q89 0 151 50.5t78 137.5h115q-11 -125 -108.5 -205t-241.5 -80q-177 0 -279 122t-102 335z" />
<glyph unicode="&#xaa;" horiz-adv-x="645" d="M-8 881q0 121 112.5 204.5t331.5 122.5q8 34 12.5 61t4.5 46q0 41 -28.5 65.5t-76.5 24.5q-52 0 -92.5 -32.5t-65.5 -92.5l-88 35q39 82 98 123t138 41q101 0 160 -48t59 -128q0 -16 -6 -51.5t-19 -88.5l-61 -278q-9 -37 -12.5 -63.5t-3.5 -53.5v-35h-101v62 q-47 -37 -95 -55.5t-95 -18.5q-77 0 -124.5 44t-47.5 116zM96 889q0 -43 23 -64.5t69 -21.5q48 0 93 22.5t86 65.5l53 231q-153 -26 -238.5 -88t-85.5 -145z" />
<glyph unicode="&#xab;" horiz-adv-x="797" d="M31 528l262 310h121l-260 -310l204 -315h-120zM315 528l260 310h123l-262 -310l207 -315h-121z" />
<glyph unicode="&#xac;" horiz-adv-x="1706" d="M254 758v100h1198v-502h-96v402h-1102z" />
<glyph unicode="&#xad;" horiz-adv-x="674" d="M47 463l27 127h465l-27 -127h-465z" />
<glyph unicode="&#xae;" horiz-adv-x="1706" d="M121 723q0 144 56.5 279.5t162.5 242.5q101 103 232 157t280 54q152 0 285.5 -55t236.5 -160q102 -102 156.5 -235.5t54.5 -282.5q0 -150 -53.5 -281t-157.5 -233q-107 -106 -242 -162.5t-280 -56.5q-147 0 -279.5 55.5t-236.5 161.5q-105 104 -160 237t-55 279zM201 723 q0 -129 49.5 -247t142.5 -212q94 -93 212 -142.5t247 -49.5q130 0 250.5 50t216.5 144q91 89 138.5 204.5t47.5 250.5q0 134 -48 253t-138 210q-94 93 -213.5 142.5t-253.5 49.5q-130 0 -246.5 -48t-208.5 -140q-95 -97 -145.5 -216.5t-50.5 -248.5zM565 313v844h309 q178 0 263.5 -57t85.5 -176q0 -89 -54 -149t-145 -73l188 -389h-145l-178 371h-197v-371h-127zM692 768h158q134 0 188 33.5t54 113.5q0 83 -57 119.5t-185 36.5h-158v-303z" />
<glyph unicode="&#xaf;" d="M371 1284l26 125h516l-26 -125h-516z" />
<glyph unicode="&#xb0;" horiz-adv-x="674" d="M59 1174q0 116 81.5 197t197.5 81q115 0 195.5 -81.5t80.5 -196.5t-81.5 -197t-196.5 -82q-117 0 -197 81t-80 198zM129 1174q0 -87 61 -147t148 -60t147 60t60 147q0 86 -60.5 147t-146.5 61t-147.5 -61t-61.5 -147z" />
<glyph unicode="&#xb1;" horiz-adv-x="1706" d="M254 51v99h1198v-99h-1198zM254 723v98h551v348h98v-348h549v-98h-549v-348h-98v348h-551z" />
<glyph unicode="&#xb2;" horiz-adv-x="575" d="M-61 584q7 75 59 155t149 166q50 44 135.5 114t110.5 97q46 50 67 92.5t21 81.5q0 53 -35.5 85t-95.5 32q-73 0 -115 -45.5t-53 -136.5h-86q5 119 72.5 186.5t181.5 67.5q106 0 167 -49.5t61 -135.5q0 -51 -20.5 -98.5t-61.5 -93.5q-48 -49 -152 -131q-39 -30 -57 -45 q-113 -91 -166.5 -150.5t-73.5 -113.5h373l-19 -78h-462z" />
<glyph unicode="&#xb3;" horiz-adv-x="575" d="M-10 788v21h88v-12q0 -75 32 -114.5t93 -39.5q70 0 118 64t48 161q0 72 -44 109t-130 37h-19l17 67q7 -1 15.5 -1.5t24.5 -0.5q106 0 162 52t56 151q0 57 -30.5 89t-84.5 32q-51 0 -83 -28t-46 -85h-90q17 91 73 139t146 48q100 0 155.5 -51.5t55.5 -143.5 q0 -93 -49 -158t-136 -88q54 -23 78.5 -66.5t24.5 -113.5q0 -130 -74 -211.5t-192 -81.5q-100 0 -154.5 59t-54.5 166z" />
<glyph unicode="&#xb4;" d="M479 1190l238 348h178l-309 -348h-107z" />
<glyph unicode="&#xb5;" horiz-adv-x="1110" d="M-111 -426l316 1491h139l-125 -592q-8 -39 -12 -73t-4 -66q0 -117 58 -180.5t167 -63.5q125 0 215 107.5t133 310.5l121 557h139l-164 -770q-12 -55 -17 -85t-5 -48q0 -33 17 -49.5t51 -16.5q7 0 16.5 0.5t19.5 1.5l-20 -110q-19 -5 -41 -8t-45 -3q-70 0 -103.5 36 t-33.5 110v14q-42 -77 -120 -119.5t-179 -42.5q-92 0 -161 40t-108 116l-114 -557h-140z" />
<glyph unicode="&#xb6;" d="M84 1130q0 157 107.5 253t285.5 96h463v-70h-127v-1409h-82v1409h-186v-1409h-84v782q-174 8 -275.5 102.5t-101.5 245.5z" />
<glyph unicode="&#xb7;" horiz-adv-x="436" d="M113 735q0 43 30.5 74t73.5 31t75 -31t32 -74t-32 -74.5t-75 -31.5q-44 0 -74 30.5t-30 75.5z" />
<glyph unicode="&#xb8;" d="M45 -418l33 86q73 -21 128 -32t95 -11q61 0 93 27t32 78q0 45 -37.5 64.5t-128.5 19.5h-35l64 186h71l-34 -106h16q113 0 165 -41t52 -129t-64.5 -140.5t-172.5 -52.5q-54 0 -123 13t-154 38z" />
<glyph unicode="&#xb9;" horiz-adv-x="573" d="M29 584l16 75h125l162 705q-21 -6 -50 -9t-75 -3l12 52q53 10 98 27.5t82 43.5h52l-191 -816h121l-16 -75h-336z" />
<glyph unicode="&#xba;" horiz-adv-x="612" d="M4 961q0 124 44 246t116 202q36 38 81 58t93 20q101 0 154 -62.5t53 -181.5q0 -117 -43.5 -238.5t-112.5 -201.5q-35 -41 -83 -63.5t-99 -22.5q-101 0 -152 61t-51 183zM109 936q0 -68 24.5 -101.5t73.5 -33.5q42 0 78.5 28.5t62.5 81.5q43 85 67.5 179t24.5 174 q0 69 -26 105t-76 36q-47 0 -85 -35t-69 -108q-36 -85 -55.5 -170t-19.5 -156z" />
<glyph unicode="&#xbb;" horiz-adv-x="797" d="M12 213l262 309l-206 316h122l207 -316l-262 -309h-123zM297 213l262 309l-207 316h123l207 -316l-262 -309h-123z" />
<glyph unicode="&#xbc;" horiz-adv-x="1438" d="M27 643l16 72h117l155 657q-19 -6 -46.5 -9t-71.5 -3l12 49q52 10 94.5 26t75.5 40h49l-180 -760h114l-16 -72h-319zM209 -29l911 1514h109l-912 -1514h-108zM872 190v27l422 604h123l-133 -561h100l-18 -70h-100l-49 -204h-87l50 204h-308zM983 260h213l104 419 q5 19 12.5 40.5t18.5 48.5z" />
<glyph unicode="&#xbd;" horiz-adv-x="1438" d="M27 643l16 72h117l155 657q-19 -6 -46.5 -9t-71.5 -3l12 49q52 10 94.5 26t75.5 40h49l-180 -760h114l-16 -72h-319zM209 -29l911 1514h109l-912 -1514h-108zM834 0q6 70 56 146.5t142 154.5q49 44 130 108.5t104 88.5q43 46 63.5 85.5t20.5 75.5q0 50 -34.5 79.5 t-90.5 29.5q-70 0 -110.5 -43.5t-50.5 -126.5h-80q4 112 68 175t173 63q101 0 160 -46.5t59 -125.5q0 -48 -20 -92.5t-60 -88.5q-45 -45 -142 -119l-57 -45q-108 -85 -158.5 -140.5t-70.5 -104.5h354l-16 -74h-440z" />
<glyph unicode="&#xbe;" horiz-adv-x="1440" d="M-8 834v20h82v-12q0 -69 31 -106.5t90 -37.5q67 0 112 59.5t45 149.5q0 69 -41.5 103t-124.5 34h-16l14 63q7 0 15 -0.5t22 -0.5q103 0 156 48t53 140q0 54 -29 84.5t-82 30.5q-47 0 -77.5 -27t-44.5 -79h-84q15 84 68.5 129t137.5 45q97 0 150 -48t53 -135 q0 -85 -46.5 -145.5t-129.5 -83.5q51 -22 74.5 -62.5t23.5 -105.5q0 -121 -70.5 -196.5t-183.5 -75.5q-94 0 -146 54t-52 155zM209 -29l911 1514h109l-912 -1514h-108zM872 190v27l422 604h123l-133 -561h100l-18 -70h-100l-49 -204h-87l50 204h-308zM983 260h213l104 419 q5 19 12.5 40.5t18.5 48.5z" />
<glyph unicode="&#xbf;" horiz-adv-x="702" d="M2 211q0 52 13 101t38 96q45 81 153 197q40 43 58 65q66 78 101.5 156.5t46.5 168.5h108q-10 -101 -50 -193.5t-122 -201.5q-21 -28 -63 -80q-150 -187 -150 -303q0 -63 36 -101t95 -38q56 0 95 39t59 114l112 -32q-24 -113 -92.5 -171.5t-177.5 -58.5q-120 0 -190 65.5 t-70 176.5zM403 1276l41 192h172l-41 -192h-172z" />
<glyph unicode="&#xc0;" horiz-adv-x="924" d="M-90 0l616 1470h215v-1470h-141v428h-371l-176 -428h-143zM285 559h315v797zM387 1958h166l219 -348h-98z" />
<glyph unicode="&#xc1;" horiz-adv-x="924" d="M-90 0l616 1470h215v-1470h-141v428h-371l-176 -428h-143zM285 559h315v797zM508 1610l238 348h178l-309 -348h-107z" />
<glyph unicode="&#xc2;" horiz-adv-x="924" d="M-90 0l616 1470h215v-1470h-141v428h-371l-176 -428h-143zM285 559h315v797zM353 1610l268 348h153l150 -348h-96l-140 227l-231 -227h-104z" />
<glyph unicode="&#xc3;" horiz-adv-x="924" d="M-90 0l616 1470h215v-1470h-141v428h-371l-176 -428h-143zM285 559h315v797zM385 1653q31 103 75.5 150t113.5 47q16 -1 34.5 -4t43.5 -11l67 -20q21 -7 37 -10t31 -3q33 0 52.5 17.5t29.5 56.5h88q-33 -103 -76 -147.5t-111 -44.5q-16 0 -36 3.5t-45 10.5l-66 20 q-18 7 -35 10t-33 3q-31 0 -51 -18.5t-33 -59.5h-86z" />
<glyph unicode="&#xc4;" horiz-adv-x="924" d="M-90 0l616 1470h215v-1470h-141v428h-371l-176 -428h-143zM285 559h315v797zM412 1673l39 189h160l-39 -189h-160zM731 1673l41 189h160l-41 -189h-160z" />
<glyph unicode="&#xc5;" horiz-adv-x="924" d="M-90 0l616 1473q-55 35 -84.5 89t-29.5 121q0 105 71.5 176.5t175.5 71.5q105 0 177.5 -72t72.5 -176q0 -82 -46 -145.5t-124 -87.5l2 -1450h-141v428h-371l-176 -428h-143zM285 559h315l10 842zM512 1681q0 -63 43.5 -106t106.5 -43q61 0 104 43.5t43 105.5 q0 63 -43 106.5t-104 43.5q-63 0 -106.5 -43.5t-43.5 -106.5z" />
<glyph unicode="&#xc6;" horiz-adv-x="1468" d="M-127 0l897 1470h780l-28 -131h-529l-110 -512h395l-27 -131h-395l-119 -563h559l-28 -133h-711l90 432h-362l-254 -432h-158zM371 565h305l176 774h-25z" />
<glyph unicode="&#xc7;" horiz-adv-x="965" d="M41 -418l33 86q73 -21 128 -32t95 -11q61 0 93 27t32 78q0 45 -37.5 64.5t-128.5 19.5h-35l64 186h71l-34 -106h16q113 0 165 -41t52 -129t-64.5 -140.5t-172.5 -52.5q-54 0 -123 13t-154 38zM53 403q0 213 49.5 426t135.5 377q74 142 174.5 215.5t218.5 73.5 q147 0 233 -100.5t86 -272.5q0 -21 -1.5 -47.5t-4.5 -58.5h-147q4 28 6 55.5t2 52.5q0 111 -48.5 174.5t-131.5 63.5q-85 0 -154 -66t-123 -198q-66 -163 -103.5 -352.5t-37.5 -360.5q0 -141 46 -212t138 -71q99 0 179.5 96.5t123.5 268.5h146q-56 -238 -177.5 -370 t-285.5 -132q-153 0 -238.5 115t-85.5 323z" />
<glyph unicode="&#xc8;" horiz-adv-x="899" d="M-10 0l311 1470h682l-29 -139h-530l-109 -506h396l-27 -127h-395l-119 -565h559l-29 -133h-710zM409 1958h166l219 -348h-98z" />
<glyph unicode="&#xc9;" horiz-adv-x="899" d="M-10 0l311 1470h682l-29 -139h-530l-109 -506h396l-27 -127h-395l-119 -565h559l-29 -133h-710zM530 1610l238 348h178l-309 -348h-107z" />
<glyph unicode="&#xca;" horiz-adv-x="899" d="M-10 0l311 1470h682l-29 -139h-530l-109 -506h396l-27 -127h-395l-119 -565h559l-29 -133h-710zM375 1610l268 348h153l150 -348h-96l-140 227l-231 -227h-104z" />
<glyph unicode="&#xcb;" horiz-adv-x="899" d="M-10 0l311 1470h682l-29 -139h-530l-109 -506h396l-27 -127h-395l-119 -565h559l-29 -133h-710zM434 1673l39 189h160l-39 -189h-160zM753 1673l41 189h160l-41 -189h-160z" />
<glyph unicode="&#xcc;" horiz-adv-x="432" d="M-16 0l313 1470h149l-311 -1470h-151zM141 1958h166l219 -348h-98z" />
<glyph unicode="&#xcd;" horiz-adv-x="432" d="M-16 0l313 1470h149l-311 -1470h-151zM262 1610l238 348h178l-309 -348h-107z" />
<glyph unicode="&#xce;" horiz-adv-x="432" d="M-16 0l313 1470h149l-311 -1470h-151zM107 1610l268 348h153l150 -348h-96l-140 227l-231 -227h-104z" />
<glyph unicode="&#xcf;" horiz-adv-x="432" d="M-16 0l313 1470h149l-311 -1470h-151zM166 1673l39 189h160l-39 -189h-160zM485 1673l41 189h160l-41 -189h-160z" />
<glyph unicode="&#xd0;" horiz-adv-x="1010" d="M0 721l23 106h157l135 643h152q259 0 375 -111.5t116 -359.5q0 -107 -19.5 -229t-57.5 -252q-41 -138 -93.5 -238.5t-115.5 -160.5q-69 -65 -164 -92t-313 -27h-41h-150l152 721h-156zM182 137h99q116 0 191 27t120 86q36 46 66 103.5t51 123.5q45 141 68.5 273.5 t23.5 242.5q0 176 -68 259t-211 83h-86l-106 -508h227l-22 -106h-228z" />
<glyph unicode="&#xd1;" horiz-adv-x="1085" d="M-12 0l311 1470h227l172 -1056q6 -37 9.5 -75t3.5 -77v-31q4 59 10 108.5t12 84.5l217 1046h146l-312 -1470h-147l-221 1370l-291 -1370h-137zM465 1653q31 103 75.5 150t113.5 47q16 -1 34.5 -4t43.5 -11l67 -20q21 -7 37 -10t31 -3q33 0 52.5 17.5t29.5 56.5h88 q-33 -103 -76 -147.5t-111 -44.5q-16 0 -36 3.5t-45 10.5l-66 20q-18 7 -35 10t-33 3q-31 0 -51 -18.5t-33 -59.5h-86z" />
<glyph unicode="&#xd2;" horiz-adv-x="1006" d="M53 408q0 210 49.5 422.5t135.5 375.5q74 142 174.5 215.5t218.5 73.5q155 0 237 -112.5t82 -325.5q0 -90 -11 -187t-34 -202q-31 -150 -74.5 -268t-101.5 -207q-68 -106 -160.5 -164t-193.5 -58q-156 0 -239 113t-83 324zM207 383q0 -138 44 -207.5t132 -69.5 q82 0 149 64.5t121 196.5q67 162 105.5 353t38.5 361q0 139 -43.5 209t-128.5 70q-86 0 -154.5 -65t-122.5 -197q-66 -160 -103.5 -350t-37.5 -365zM405 1958h166l219 -348h-98z" />
<glyph unicode="&#xd3;" horiz-adv-x="1006" d="M53 408q0 210 49.5 422.5t135.5 375.5q74 142 174.5 215.5t218.5 73.5q155 0 237 -112.5t82 -325.5q0 -90 -11 -187t-34 -202q-31 -150 -74.5 -268t-101.5 -207q-68 -106 -160.5 -164t-193.5 -58q-156 0 -239 113t-83 324zM207 383q0 -138 44 -207.5t132 -69.5 q82 0 149 64.5t121 196.5q67 162 105.5 353t38.5 361q0 139 -43.5 209t-128.5 70q-86 0 -154.5 -65t-122.5 -197q-66 -160 -103.5 -350t-37.5 -365zM526 1610l238 348h178l-309 -348h-107z" />
<glyph unicode="&#xd4;" horiz-adv-x="1006" d="M53 408q0 210 49.5 422.5t135.5 375.5q74 142 174.5 215.5t218.5 73.5q155 0 237 -112.5t82 -325.5q0 -90 -11 -187t-34 -202q-31 -150 -74.5 -268t-101.5 -207q-68 -106 -160.5 -164t-193.5 -58q-156 0 -239 113t-83 324zM207 383q0 -138 44 -207.5t132 -69.5 q82 0 149 64.5t121 196.5q67 162 105.5 353t38.5 361q0 139 -43.5 209t-128.5 70q-86 0 -154.5 -65t-122.5 -197q-66 -160 -103.5 -350t-37.5 -365zM371 1610l268 348h153l150 -348h-96l-140 227l-231 -227h-104z" />
<glyph unicode="&#xd5;" horiz-adv-x="1006" d="M53 408q0 210 49.5 422.5t135.5 375.5q74 142 174.5 215.5t218.5 73.5q155 0 237 -112.5t82 -325.5q0 -90 -11 -187t-34 -202q-31 -150 -74.5 -268t-101.5 -207q-68 -106 -160.5 -164t-193.5 -58q-156 0 -239 113t-83 324zM207 383q0 -138 44 -207.5t132 -69.5 q82 0 149 64.5t121 196.5q67 162 105.5 353t38.5 361q0 139 -43.5 209t-128.5 70q-86 0 -154.5 -65t-122.5 -197q-66 -160 -103.5 -350t-37.5 -365zM403 1653q31 103 75.5 150t113.5 47q16 -1 34.5 -4t43.5 -11l67 -20q21 -7 37 -10t31 -3q33 0 52.5 17.5t29.5 56.5h88 q-33 -103 -76 -147.5t-111 -44.5q-16 0 -36 3.5t-45 10.5l-66 20q-18 7 -35 10t-33 3q-31 0 -51 -18.5t-33 -59.5h-86z" />
<glyph unicode="&#xd6;" horiz-adv-x="1006" d="M53 408q0 210 49.5 422.5t135.5 375.5q74 142 174.5 215.5t218.5 73.5q155 0 237 -112.5t82 -325.5q0 -90 -11 -187t-34 -202q-31 -150 -74.5 -268t-101.5 -207q-68 -106 -160.5 -164t-193.5 -58q-156 0 -239 113t-83 324zM207 383q0 -138 44 -207.5t132 -69.5 q82 0 149 64.5t121 196.5q67 162 105.5 353t38.5 361q0 139 -43.5 209t-128.5 70q-86 0 -154.5 -65t-122.5 -197q-66 -160 -103.5 -350t-37.5 -365zM430 1673l39 189h160l-39 -189h-160zM749 1673l41 189h160l-41 -189h-160z" />
<glyph unicode="&#xd7;" horiz-adv-x="1706" d="M305 129l481 481l-481 482l70 69l481 -481l481 481l70 -69l-481 -482l481 -481l-70 -70l-481 482l-481 -482z" />
<glyph unicode="&#xd8;" horiz-adv-x="1006" d="M41 -147l106 217q-48 57 -72 137t-24 182q0 220 51 440.5t136 376.5q78 145 176.5 217t216.5 72q53 0 97.5 -14t84.5 -43l84 168l84 -45l-98 -199q34 -64 50.5 -132t16.5 -145q0 -254 -60 -494t-163 -401q-66 -102 -159.5 -161.5t-190.5 -59.5q-38 0 -76.5 10t-77.5 29 l-98 -205zM203 383q0 -54 5 -91.5t15 -66.5l525 1075q-27 30 -59.5 45t-70.5 15q-81 0 -148.5 -65.5t-121.5 -196.5q-67 -165 -106 -357t-39 -358zM287 137q20 -15 42 -23t48 -8q70 0 132 45t105 128q36 69 68 163t61 222q27 115 41.5 223t14.5 184q0 31 -8 95v5z" />
<glyph unicode="&#xd9;" horiz-adv-x="1053" d="M61 272q0 37 7.5 90t21.5 115l211 993h152l-205 -964q-5 -23 -14 -64q-27 -122 -27 -176q0 -77 52.5 -122.5t143.5 -45.5q121 0 187.5 77t107.5 274l217 1021h148l-219 -1034q-55 -257 -159 -362t-296 -105q-152 0 -240 81t-88 222zM450 1958h166l219 -348h-98z" />
<glyph unicode="&#xda;" horiz-adv-x="1053" d="M61 272q0 37 7.5 90t21.5 115l211 993h152l-205 -964q-5 -23 -14 -64q-27 -122 -27 -176q0 -77 52.5 -122.5t143.5 -45.5q121 0 187.5 77t107.5 274l217 1021h148l-219 -1034q-55 -257 -159 -362t-296 -105q-152 0 -240 81t-88 222zM571 1610l238 348h178l-309 -348h-107 z" />
<glyph unicode="&#xdb;" horiz-adv-x="1053" d="M61 272q0 37 7.5 90t21.5 115l211 993h152l-205 -964q-5 -23 -14 -64q-27 -122 -27 -176q0 -77 52.5 -122.5t143.5 -45.5q121 0 187.5 77t107.5 274l217 1021h148l-219 -1034q-55 -257 -159 -362t-296 -105q-152 0 -240 81t-88 222zM416 1610l268 348h153l150 -348h-96 l-140 227l-231 -227h-104z" />
<glyph unicode="&#xdc;" horiz-adv-x="1053" d="M61 272q0 37 7.5 90t21.5 115l211 993h152l-205 -964q-5 -23 -14 -64q-27 -122 -27 -176q0 -77 52.5 -122.5t143.5 -45.5q121 0 187.5 77t107.5 274l217 1021h148l-219 -1034q-55 -257 -159 -362t-296 -105q-152 0 -240 81t-88 222zM475 1673l39 189h160l-39 -189h-160z M794 1673l41 189h160l-41 -189h-160z" />
<glyph unicode="&#xdd;" horiz-adv-x="799" d="M111 1470h147l135 -665l400 665h161l-526 -866l-127 -604h-160l140 643zM444 1610l238 348h178l-309 -348h-107z" />
<glyph unicode="&#xde;" horiz-adv-x="983" d="M-10 0l309 1470h156l-68 -317h84q213 0 318.5 -88.5t105.5 -267.5q0 -118 -40.5 -210.5t-119.5 -152.5q-65 -50 -151 -71t-265 -21h-106l-70 -342h-153zM244 469h141q178 0 269 85t91 251q0 116 -63.5 167.5t-210.5 51.5h-113z" />
<glyph unicode="&#xdf;" horiz-adv-x="893" d="M-27 2l234 1106q41 194 119 279.5t213 85.5q138 0 217.5 -84.5t79.5 -231.5q0 -136 -62 -234.5t-166 -127.5q68 -51 99.5 -124.5t31.5 -178.5q0 -226 -106 -364t-279 -138q-23 0 -47.5 3t-50.5 9l29 137q17 -6 34 -9t35 -3q109 0 174.5 99.5t65.5 267.5q0 100 -40 160 t-126 87l27 123q114 11 179.5 93.5t65.5 216.5q0 85 -39.5 130.5t-113.5 45.5q-75 0 -122 -60t-77 -196l-231 -1092h-144z" />
<glyph unicode="&#xe0;" horiz-adv-x="860" d="M-10 211q0 173 150 292t442 177q11 48 16.5 86.5t5.5 62.5q0 60 -38 94.5t-103 34.5q-69 0 -123 -45.5t-86 -130.5l-119 47q52 119 131 177.5t185 58.5q134 0 212 -68t78 -184q0 -22 -7.5 -73t-22.5 -126l-84 -398q-12 -51 -16.5 -89.5t-4.5 -77.5v-49h-133v88 q-64 -53 -127 -79.5t-127 -26.5q-104 0 -166.5 62.5t-62.5 166.5zM129 221q0 -61 30 -91t93 -30q61 0 121.5 32t115.5 93l70 332q-203 -39 -316.5 -127.5t-113.5 -208.5zM268 1538h166l219 -348h-98z" />
<glyph unicode="&#xe1;" horiz-adv-x="860" d="M-10 211q0 173 150 292t442 177q11 48 16.5 86.5t5.5 62.5q0 60 -38 94.5t-103 34.5q-69 0 -123 -45.5t-86 -130.5l-119 47q52 119 131 177.5t185 58.5q134 0 212 -68t78 -184q0 -22 -7.5 -73t-22.5 -126l-84 -398q-12 -51 -16.5 -89.5t-4.5 -77.5v-49h-133v88 q-64 -53 -127 -79.5t-127 -26.5q-104 0 -166.5 62.5t-62.5 166.5zM129 221q0 -61 30 -91t93 -30q61 0 121.5 32t115.5 93l70 332q-203 -39 -316.5 -127.5t-113.5 -208.5zM389 1190l238 348h178l-309 -348h-107z" />
<glyph unicode="&#xe2;" horiz-adv-x="860" d="M-10 211q0 173 150 292t442 177q11 48 16.5 86.5t5.5 62.5q0 60 -38 94.5t-103 34.5q-69 0 -123 -45.5t-86 -130.5l-119 47q52 119 131 177.5t185 58.5q134 0 212 -68t78 -184q0 -22 -7.5 -73t-22.5 -126l-84 -398q-12 -51 -16.5 -89.5t-4.5 -77.5v-49h-133v88 q-64 -53 -127 -79.5t-127 -26.5q-104 0 -166.5 62.5t-62.5 166.5zM129 221q0 -61 30 -91t93 -30q61 0 121.5 32t115.5 93l70 332q-203 -39 -316.5 -127.5t-113.5 -208.5zM234 1190l268 348h153l150 -348h-96l-140 227l-231 -227h-104z" />
<glyph unicode="&#xe3;" horiz-adv-x="860" d="M-10 211q0 173 150 292t442 177q11 48 16.5 86.5t5.5 62.5q0 60 -38 94.5t-103 34.5q-69 0 -123 -45.5t-86 -130.5l-119 47q52 119 131 177.5t185 58.5q134 0 212 -68t78 -184q0 -22 -7.5 -73t-22.5 -126l-84 -398q-12 -51 -16.5 -89.5t-4.5 -77.5v-49h-133v88 q-64 -53 -127 -79.5t-127 -26.5q-104 0 -166.5 62.5t-62.5 166.5zM129 221q0 -61 30 -91t93 -30q61 0 121.5 32t115.5 93l70 332q-203 -39 -316.5 -127.5t-113.5 -208.5zM266 1233q31 103 75.5 150t113.5 47q16 -1 34.5 -4t43.5 -11l67 -20q21 -7 37 -10t31 -3 q33 0 52.5 17.5t29.5 56.5h88q-33 -103 -76 -147.5t-111 -44.5q-16 0 -36 3.5t-45 10.5l-66 20q-18 7 -35 10t-33 3q-31 0 -51 -18.5t-33 -59.5h-86z" />
<glyph unicode="&#xe4;" horiz-adv-x="860" d="M-10 211q0 173 150 292t442 177q11 48 16.5 86.5t5.5 62.5q0 60 -38 94.5t-103 34.5q-69 0 -123 -45.5t-86 -130.5l-119 47q52 119 131 177.5t185 58.5q134 0 212 -68t78 -184q0 -22 -7.5 -73t-22.5 -126l-84 -398q-12 -51 -16.5 -89.5t-4.5 -77.5v-49h-133v88 q-64 -53 -127 -79.5t-127 -26.5q-104 0 -166.5 62.5t-62.5 166.5zM129 221q0 -61 30 -91t93 -30q61 0 121.5 32t115.5 93l70 332q-203 -39 -316.5 -127.5t-113.5 -208.5zM293 1253l39 189h160l-39 -189h-160zM612 1253l41 189h160l-41 -189h-160z" />
<glyph unicode="&#xe5;" horiz-adv-x="860" d="M-10 211q0 173 150 292t442 177q11 48 16.5 86.5t5.5 62.5q0 60 -38 94.5t-103 34.5q-69 0 -123 -45.5t-86 -130.5l-119 47q52 119 131 177.5t185 58.5q134 0 212 -68t78 -184q0 -22 -7.5 -73t-22.5 -126l-84 -398q-12 -51 -16.5 -89.5t-4.5 -77.5v-49h-133v88 q-64 -53 -127 -79.5t-127 -26.5q-104 0 -166.5 62.5t-62.5 166.5zM129 221q0 -61 30 -91t93 -30q61 0 121.5 32t115.5 93l70 332q-203 -39 -316.5 -127.5t-113.5 -208.5zM303 1384q0 105 71.5 176.5t176.5 71.5t177.5 -72t72.5 -176t-72.5 -175.5t-177.5 -71.5t-176.5 71.5 t-71.5 175.5zM403 1384q0 -63 43.5 -106t106.5 -43q62 0 104.5 43.5t42.5 105.5q0 63 -42.5 106.5t-104.5 43.5q-63 0 -106.5 -43.5t-43.5 -106.5z" />
<glyph unicode="&#xe6;" horiz-adv-x="1337" d="M-10 211q0 175 152 295.5t440 173.5q11 41 16.5 74t5.5 61q0 71 -35.5 107t-105.5 36q-69 0 -121.5 -44t-87.5 -132l-119 47q58 127 136.5 185.5t189.5 58.5q77 0 139 -32t111 -97q58 66 120 97.5t134 31.5q133 0 201.5 -84t68.5 -248q0 -52 -6 -112t-19 -127h-526 q-14 -62 -21.5 -113.5t-7.5 -91.5q0 -99 34.5 -150t101.5 -51q63 0 119 57t104 169l131 -17q-55 -160 -146.5 -244t-212.5 -84q-76 0 -131.5 33.5t-89.5 100.5q-91 -67 -173.5 -100.5t-153.5 -33.5q-118 0 -183 62t-65 172zM129 221q0 -61 29.5 -91t91.5 -30 q61 0 122.5 30.5t114.5 86.5l72 340q-203 -39 -316.5 -128t-113.5 -208zM717 623h373q4 39 6 74.5t2 64.5q0 98 -33.5 147t-99.5 49q-82 0 -145.5 -86t-102.5 -249z" />
<glyph unicode="&#xe7;" horiz-adv-x="793" d="M-70 -418l33 86q73 -21 128 -32t95 -11q61 0 93 27t32 78q0 45 -37.5 64.5t-128.5 19.5h-35l64 186h71l-34 -106h16q113 0 165 -41t52 -129t-64.5 -140.5t-172.5 -52.5q-54 0 -123 13t-154 38zM6 322q0 181 58.5 355.5t154.5 287.5q47 54 106.5 83t125.5 29 q127 0 197.5 -81t70.5 -228v-25h-135v29q0 90 -34.5 138t-98.5 48q-50 0 -93.5 -32t-76.5 -95q-63 -118 -101.5 -265.5t-38.5 -264.5q0 -103 34 -154t101 -51q65 0 121.5 57t102.5 169l131 -17q-50 -157 -143.5 -242.5t-215.5 -85.5q-131 0 -198.5 87.5t-67.5 257.5z" />
<glyph unicode="&#xe8;" horiz-adv-x="823" d="M6 322q0 181 58.5 355.5t154.5 287.5q47 54 106.5 83t125.5 29q132 0 202 -86t70 -250q0 -36 -6 -92t-21 -147h-530q-12 -65 -18.5 -115.5t-6.5 -83.5q0 -103 34 -155t101 -52q64 0 120 57t104 169l131 -17q-59 -163 -149 -245.5t-210 -82.5q-131 0 -198.5 87.5 t-67.5 257.5zM199 623h376q5 30 7 59.5t2 60.5q0 112 -32 163.5t-101 51.5q-81 0 -143.5 -83t-108.5 -252zM239 1538h166l219 -348h-98z" />
<glyph unicode="&#xe9;" horiz-adv-x="823" d="M6 322q0 181 58.5 355.5t154.5 287.5q47 54 106.5 83t125.5 29q132 0 202 -86t70 -250q0 -36 -6 -92t-21 -147h-530q-12 -65 -18.5 -115.5t-6.5 -83.5q0 -103 34 -155t101 -52q64 0 120 57t104 169l131 -17q-59 -163 -149 -245.5t-210 -82.5q-131 0 -198.5 87.5 t-67.5 257.5zM199 623h376q5 30 7 59.5t2 60.5q0 112 -32 163.5t-101 51.5q-81 0 -143.5 -83t-108.5 -252zM360 1190l238 348h178l-309 -348h-107z" />
<glyph unicode="&#xea;" horiz-adv-x="823" d="M6 322q0 181 58.5 355.5t154.5 287.5q47 54 106.5 83t125.5 29q132 0 202 -86t70 -250q0 -36 -6 -92t-21 -147h-530q-12 -65 -18.5 -115.5t-6.5 -83.5q0 -103 34 -155t101 -52q64 0 120 57t104 169l131 -17q-59 -163 -149 -245.5t-210 -82.5q-131 0 -198.5 87.5 t-67.5 257.5zM199 623h376q5 30 7 59.5t2 60.5q0 112 -32 163.5t-101 51.5q-81 0 -143.5 -83t-108.5 -252zM205 1190l268 348h153l150 -348h-96l-140 227l-231 -227h-104z" />
<glyph unicode="&#xeb;" horiz-adv-x="823" d="M6 322q0 181 58.5 355.5t154.5 287.5q47 54 106.5 83t125.5 29q132 0 202 -86t70 -250q0 -36 -6 -92t-21 -147h-530q-12 -65 -18.5 -115.5t-6.5 -83.5q0 -103 34 -155t101 -52q64 0 120 57t104 169l131 -17q-59 -163 -149 -245.5t-210 -82.5q-131 0 -198.5 87.5 t-67.5 257.5zM199 623h376q5 30 7 59.5t2 60.5q0 112 -32 163.5t-101 51.5q-81 0 -143.5 -83t-108.5 -252zM264 1253l39 189h160l-39 -189h-160zM583 1253l41 189h160l-41 -189h-160z" />
<glyph unicode="&#xec;" horiz-adv-x="395" d="M-27 0l224 1053h139l-221 -1053h-142zM45 1538h166l219 -348h-98z" />
<glyph unicode="&#xed;" horiz-adv-x="395" d="M-27 0l224 1053h139l-221 -1053h-142zM166 1190l238 348h178l-309 -348h-107z" />
<glyph unicode="&#xee;" horiz-adv-x="395" d="M-27 0l224 1053h139l-221 -1053h-142zM11 1190l268 348h153l150 -348h-96l-140 227l-231 -227h-104z" />
<glyph unicode="&#xef;" horiz-adv-x="395" d="M-27 0l224 1053h139l-221 -1053h-142zM70 1253l39 189h160l-39 -189h-160zM389 1253l41 189h160l-41 -189h-160z" />
<glyph unicode="&#xf0;" horiz-adv-x="817" d="M8 315q0 172 56 337t151 276q42 49 98.5 76.5t114.5 27.5q33 0 59.5 -7.5t49.5 -23.5q-13 52 -28.5 98.5t-35.5 90.5l-207 -62l-20 66l198 59q-20 48 -44.5 94t-53.5 91l90 49q34 -49 64 -98.5t57 -100.5l186 55l21 -65l-176 -53q56 -127 83 -243.5t27 -225.5 q0 -192 -53 -366.5t-145 -289.5q-47 -57 -107 -86.5t-129 -29.5q-126 0 -191 84t-65 247zM139 295q0 -101 31 -149t96 -48q54 0 102 39t81 111q53 114 83.5 243t30.5 238q0 94 -32.5 142.5t-96.5 48.5q-47 0 -90 -32t-76 -91q-55 -100 -92 -243t-37 -259z" />
<glyph unicode="&#xf1;" horiz-adv-x="872" d="M-27 0l224 1053h122l-24 -123q74 69 143 104t133 35q94 0 145.5 -51t51.5 -144q0 -21 -3.5 -49t-10.5 -63l-162 -762h-141l163 770l2 8q11 57 11 78q0 47 -25.5 70.5t-75.5 23.5q-55 0 -115.5 -33.5t-121.5 -99.5l-174 -817h-142zM280 1233q31 103 75.5 150t113.5 47 q16 -1 34.5 -4t43.5 -11l67 -20q21 -7 37 -10t31 -3q33 0 52.5 17.5t29.5 56.5h88q-33 -103 -76 -147.5t-111 -44.5q-16 0 -36 3.5t-45 10.5l-66 20q-18 7 -35 10t-33 3q-31 0 -51 -18.5t-33 -59.5h-86z" />
<glyph unicode="&#xf2;" horiz-adv-x="817" d="M6 324q0 180 58 354t155 287q47 54 106.5 83t125.5 29q134 0 204 -89t70 -259q0 -169 -57 -342.5t-150 -288.5q-47 -58 -110.5 -89.5t-133.5 -31.5q-133 0 -200.5 87t-67.5 260zM143 291q0 -97 33.5 -146t99.5 -49q55 0 104.5 41.5t84.5 116.5q57 124 89 258t32 246 q0 99 -34.5 149.5t-100.5 50.5q-63 0 -112.5 -49t-92.5 -153q-49 -120 -76 -241.5t-27 -223.5zM256 1538h166l219 -348h-98z" />
<glyph unicode="&#xf3;" horiz-adv-x="817" d="M6 324q0 180 58 354t155 287q47 54 106.5 83t125.5 29q134 0 204 -89t70 -259q0 -169 -57 -342.5t-150 -288.5q-47 -58 -110.5 -89.5t-133.5 -31.5q-133 0 -200.5 87t-67.5 260zM143 291q0 -97 33.5 -146t99.5 -49q55 0 104.5 41.5t84.5 116.5q57 124 89 258t32 246 q0 99 -34.5 149.5t-100.5 50.5q-63 0 -112.5 -49t-92.5 -153q-49 -120 -76 -241.5t-27 -223.5zM377 1190l238 348h178l-309 -348h-107z" />
<glyph unicode="&#xf4;" horiz-adv-x="817" d="M6 324q0 180 58 354t155 287q47 54 106.5 83t125.5 29q134 0 204 -89t70 -259q0 -169 -57 -342.5t-150 -288.5q-47 -58 -110.5 -89.5t-133.5 -31.5q-133 0 -200.5 87t-67.5 260zM143 291q0 -97 33.5 -146t99.5 -49q55 0 104.5 41.5t84.5 116.5q57 124 89 258t32 246 q0 99 -34.5 149.5t-100.5 50.5q-63 0 -112.5 -49t-92.5 -153q-49 -120 -76 -241.5t-27 -223.5zM222 1190l268 348h153l150 -348h-96l-140 227l-231 -227h-104z" />
<glyph unicode="&#xf5;" horiz-adv-x="817" d="M6 324q0 180 58 354t155 287q47 54 106.5 83t125.5 29q134 0 204 -89t70 -259q0 -169 -57 -342.5t-150 -288.5q-47 -58 -110.5 -89.5t-133.5 -31.5q-133 0 -200.5 87t-67.5 260zM143 291q0 -97 33.5 -146t99.5 -49q55 0 104.5 41.5t84.5 116.5q57 124 89 258t32 246 q0 99 -34.5 149.5t-100.5 50.5q-63 0 -112.5 -49t-92.5 -153q-49 -120 -76 -241.5t-27 -223.5zM254 1233q31 103 75.5 150t113.5 47q16 -1 34.5 -4t43.5 -11l67 -20q21 -7 37 -10t31 -3q33 0 52.5 17.5t29.5 56.5h88q-33 -103 -76 -147.5t-111 -44.5q-16 0 -36 3.5t-45 10.5 l-66 20q-18 7 -35 10t-33 3q-31 0 -51 -18.5t-33 -59.5h-86z" />
<glyph unicode="&#xf6;" horiz-adv-x="817" d="M6 324q0 180 58 354t155 287q47 54 106.5 83t125.5 29q134 0 204 -89t70 -259q0 -169 -57 -342.5t-150 -288.5q-47 -58 -110.5 -89.5t-133.5 -31.5q-133 0 -200.5 87t-67.5 260zM143 291q0 -97 33.5 -146t99.5 -49q55 0 104.5 41.5t84.5 116.5q57 124 89 258t32 246 q0 99 -34.5 149.5t-100.5 50.5q-63 0 -112.5 -49t-92.5 -153q-49 -120 -76 -241.5t-27 -223.5zM281 1253l39 189h160l-39 -189h-160zM600 1253l41 189h160l-41 -189h-160z" />
<glyph unicode="&#xf7;" horiz-adv-x="1706" d="M254 561v98h1198v-98h-1198zM748 258q0 44 31 75.5t75 31.5q45 0 76 -31t31 -76q0 -44 -31 -75t-76 -31t-75.5 31t-30.5 75zM748 963q0 44 31.5 76t74.5 32q44 0 75.5 -32t31.5 -76q0 -45 -31 -76t-76 -31t-75.5 30.5t-30.5 76.5z" />
<glyph unicode="&#xf8;" horiz-adv-x="817" d="M-25 -219l121 258q-46 45 -68 113t-22 170q0 144 39.5 287t114.5 272q56 96 131.5 147t159.5 51q31 0 59 -5.5t55 -16.5l101 213l75 -39l-102 -221q45 -50 66.5 -117.5t21.5 -159.5q0 -167 -57.5 -341t-149.5 -290q-47 -60 -112.5 -92.5t-141.5 -32.5q-25 0 -50.5 5 t-47.5 14l-117 -250zM141 301q0 -31 4.5 -62t14.5 -62l352 765q-13 8 -27.5 12t-31.5 4q-49 0 -90.5 -28.5t-73.5 -85.5q-64 -112 -106 -266t-42 -277zM223 113q12 -9 24.5 -13t26.5 -4q46 0 87 27t75 80q30 48 59 120.5t54 165.5q18 70 27.5 136.5t9.5 124.5 q0 35 -3.5 63.5t-11.5 50.5z" />
<glyph unicode="&#xf9;" horiz-adv-x="872" d="M20 178q0 21 4 50t11 63l162 762h141l-166 -772q-5 -22 -7.5 -42.5t-2.5 -41.5q0 -48 24.5 -71.5t73.5 -23.5q57 0 119.5 34.5t120.5 99.5l174 817h141l-223 -1053h-125l27 121q-78 -73 -144 -105t-135 -32q-91 0 -143 51.5t-52 142.5zM282 1538h166l219 -348h-98z" />
<glyph unicode="&#xfa;" horiz-adv-x="872" d="M20 178q0 21 4 50t11 63l162 762h141l-166 -772q-5 -22 -7.5 -42.5t-2.5 -41.5q0 -48 24.5 -71.5t73.5 -23.5q57 0 119.5 34.5t120.5 99.5l174 817h141l-223 -1053h-125l27 121q-78 -73 -144 -105t-135 -32q-91 0 -143 51.5t-52 142.5zM403 1190l238 348h178l-309 -348 h-107z" />
<glyph unicode="&#xfb;" horiz-adv-x="872" d="M20 178q0 21 4 50t11 63l162 762h141l-166 -772q-5 -22 -7.5 -42.5t-2.5 -41.5q0 -48 24.5 -71.5t73.5 -23.5q57 0 119.5 34.5t120.5 99.5l174 817h141l-223 -1053h-125l27 121q-78 -73 -144 -105t-135 -32q-91 0 -143 51.5t-52 142.5zM248 1190l268 348h153l150 -348 h-96l-140 227l-231 -227h-104z" />
<glyph unicode="&#xfc;" horiz-adv-x="872" d="M20 178q0 21 4 50t11 63l162 762h141l-166 -772q-5 -22 -7.5 -42.5t-2.5 -41.5q0 -48 24.5 -71.5t73.5 -23.5q57 0 119.5 34.5t120.5 99.5l174 817h141l-223 -1053h-125l27 121q-78 -73 -144 -105t-135 -32q-91 0 -143 51.5t-52 142.5zM307 1253l39 189h160l-39 -189 h-160zM626 1253l41 189h160l-41 -189h-160z" />
<glyph unicode="&#xfd;" horiz-adv-x="696" d="M-158 -339l9 116q18 -3 25.5 -3.5t14.5 -0.5q78 0 133 55.5t101 181.5l-45 1043h125l24 -734v-30q0 -25 -1.5 -54.5t-4.5 -61.5q8 38 19 74t26 72l324 734h127l-526 -1184q-51 -113 -121 -162t-181 -49q-20 0 -30 0.5t-19 2.5zM315 1190l238 348h178l-309 -348h-107z" />
<glyph unicode="&#xfe;" horiz-adv-x="879" d="M-100 -356l385 1826h141l-104 -495q51 50 102.5 74t105.5 24q116 0 181 -94t65 -262q0 -132 -31.5 -263.5t-89.5 -242.5q-59 -112 -137.5 -169.5t-173.5 -57.5q-65 0 -119.5 28.5t-89.5 81.5l-94 -450h-141zM158 199q40 -50 82.5 -73.5t91.5 -23.5t90.5 27.5t77.5 83.5 q62 97 100.5 243.5t38.5 288.5q0 106 -38.5 161t-113.5 55q-76 0 -134 -57.5t-79 -153.5z" />
<glyph unicode="&#xff;" horiz-adv-x="696" d="M-158 -339l9 116q18 -3 25.5 -3.5t14.5 -0.5q78 0 133 55.5t101 181.5l-45 1043h125l24 -734v-30q0 -25 -1.5 -54.5t-4.5 -61.5q8 38 19 74t26 72l324 734h127l-526 -1184q-51 -113 -121 -162t-181 -49q-20 0 -30 0.5t-19 2.5zM219 1253l39 189h160l-39 -189h-160z M538 1253l41 189h160l-41 -189h-160z" />
<glyph unicode="&#x152;" horiz-adv-x="1511" d="M53 401q0 213 49.5 427t135.5 378q74 142 174.5 215.5t218.5 73.5q103 0 173.5 -61t96.5 -172l43 208h651l-28 -139h-531l-108 -506h395l-27 -127h-395l-119 -565h559l-28 -133h-674l39 184q-54 -106 -133 -160.5t-180 -54.5q-146 0 -229 114.5t-83 317.5zM207 383 q0 -138 44 -207.5t132 -69.5q82 0 149 64.5t121 196.5q67 162 105.5 353t38.5 361q0 139 -43.5 209t-128.5 70q-86 0 -154.5 -65t-122.5 -197q-66 -160 -103.5 -350t-37.5 -365z" />
<glyph unicode="&#x153;" horiz-adv-x="1348" d="M6 322q0 181 58.5 355.5t154.5 287.5q48 55 106.5 83.5t123.5 28.5q94 0 153.5 -45t89.5 -139q60 94 129 139t152 45q132 0 202 -86t70 -250q0 -38 -6 -98t-18 -141h-531q-12 -65 -18 -115.5t-6 -83.5q0 -103 33.5 -155t101.5 -52q63 0 119.5 57t103.5 169l129 -17 q-56 -162 -147 -245t-211 -83q-94 0 -153 45.5t-87 137.5q-53 -91 -123.5 -137t-157.5 -46q-132 0 -200 87.5t-68 257.5zM143 291q0 -97 33.5 -146t99.5 -49q55 0 104.5 41.5t84.5 116.5q57 124 89 258t32 246q0 99 -34.5 149.5t-100.5 50.5q-63 0 -112.5 -49t-92.5 -153 q-49 -120 -76 -241.5t-27 -223.5zM721 623h379q4 39 6 74.5t2 64.5q0 98 -33.5 147t-99.5 49q-81 0 -145.5 -85t-108.5 -250z" />
<glyph unicode="&#x178;" horiz-adv-x="799" d="M111 1470h147l135 -665l400 665h161l-526 -866l-127 -604h-160l140 643zM348 1673l39 189h160l-39 -189h-160zM667 1673l41 189h160l-41 -189h-160z" />
<glyph unicode="&#x2c6;" d="M324 1190l268 348h153l150 -348h-96l-140 227l-231 -227h-104z" />
<glyph unicode="&#x2dc;" d="M356 1233q31 103 75.5 150t113.5 47q16 -1 34.5 -4t43.5 -11l67 -20q21 -7 37 -10t31 -3q33 0 52.5 17.5t29.5 56.5h88q-33 -103 -76 -147.5t-111 -44.5q-16 0 -36 3.5t-45 10.5l-66 20q-18 7 -35 10t-33 3q-31 0 -51 -18.5t-33 -59.5h-86z" />
<glyph unicode="&#x2000;" horiz-adv-x="979" />
<glyph unicode="&#x2001;" horiz-adv-x="1958" />
<glyph unicode="&#x2002;" horiz-adv-x="979" />
<glyph unicode="&#x2003;" horiz-adv-x="1958" />
<glyph unicode="&#x2004;" horiz-adv-x="652" />
<glyph unicode="&#x2005;" horiz-adv-x="489" />
<glyph unicode="&#x2006;" horiz-adv-x="326" />
<glyph unicode="&#x2007;" horiz-adv-x="326" />
<glyph unicode="&#x2008;" horiz-adv-x="244" />
<glyph unicode="&#x2009;" horiz-adv-x="391" />
<glyph unicode="&#x200a;" horiz-adv-x="108" />
<glyph unicode="&#x2010;" horiz-adv-x="674" d="M47 463l27 127h465l-27 -127h-465z" />
<glyph unicode="&#x2011;" horiz-adv-x="674" d="M47 463l27 127h465l-27 -127h-465z" />
<glyph unicode="&#x2012;" horiz-adv-x="674" d="M47 463l27 127h465l-27 -127h-465z" />
<glyph unicode="&#x2013;" d="M0 479l18 92h1004l-18 -92h-1004z" />
<glyph unicode="&#x2014;" horiz-adv-x="2048" d="M-10 479l18 92h2048l-18 -92h-2048z" />
<glyph unicode="&#x2018;" horiz-adv-x="436" d="M180 981l43 195l197 294h69l-167 -307h63l-39 -182h-166z" />
<glyph unicode="&#x2019;" horiz-adv-x="436" d="M158 981l168 305h-64l39 184h166l-41 -194l-197 -295h-71z" />
<glyph unicode="&#x201a;" horiz-adv-x="436" d="M-104 -303l165 303h-63l39 186h166l-41 -196l-197 -293h-69z" />
<glyph unicode="&#x201c;" horiz-adv-x="748" d="M180 981l43 195l197 294h69l-167 -307h63l-39 -182h-166zM492 981l40 195l197 294h72l-168 -307h63l-39 -182h-165z" />
<glyph unicode="&#x201d;" horiz-adv-x="748" d="M168 981l168 305h-64l39 184h166l-41 -194l-196 -295h-72zM479 981l168 305h-63l39 184h165l-40 -194l-197 -295h-72z" />
<glyph unicode="&#x201e;" horiz-adv-x="748" d="M-90 -305l166 305h-64l39 184h166l-41 -194l-196 -295h-70zM219 -305l168 305h-63l38 184h166l-41 -194l-196 -295h-72z" />
<glyph unicode="&#x2022;" horiz-adv-x="1208" d="M307 762q0 123 87 209t210 86q122 0 208.5 -86.5t86.5 -208.5t-87.5 -209.5t-209.5 -87.5q-123 0 -209 87t-86 210z" />
<glyph unicode="&#x2026;" horiz-adv-x="2048" d="M100 0l41 193h172l-40 -193h-173zM782 0l41 193h172l-40 -193h-173zM1466 0l41 193h172l-40 -193h-173z" />
<glyph unicode="&#x202f;" horiz-adv-x="391" />
<glyph unicode="&#x2039;" horiz-adv-x="510" d="M29 528l262 310h121l-260 -310l206 -315h-122z" />
<glyph unicode="&#x203a;" horiz-adv-x="510" d="M12 213l262 309l-206 316h122l207 -316l-262 -309h-123z" />
<glyph unicode="&#x205f;" horiz-adv-x="489" />
<glyph unicode="&#x2122;" horiz-adv-x="1706" d="M264 1397v57h430v-57h-172v-473h-82v473h-176zM821 924v530h117l166 -422l156 422h116v-530h-71v467l-177 -467h-49l-186 467v-467h-72z" />
<glyph unicode="&#x25fc;" horiz-adv-x="1055" d="M0 0v1055h1055v-1055h-1055z" />
</font>
</defs>
</svg>
